<svg width="94" height="10" viewBox="0 0 94 10" fill="none" xmlns="http://www.w3.org/2000/svg">
<path d="M6.23438 4.32422V5.5957H0.386719V4.32422H6.23438ZM3.99609 1.93359V8.14453H2.63086V1.93359H3.99609ZM12.9785 0.46875V1.24219L9.56836 9H8.08008L11.4844 1.59375H7.06641V0.46875H12.9785ZM18.2578 7.88672H18.375C18.9141 7.88672 19.3633 7.81641 19.7227 7.67578C20.0859 7.53125 20.375 7.33203 20.5898 7.07812C20.8047 6.82422 20.959 6.52539 21.0527 6.18164C21.1465 5.83789 21.1934 5.46484 21.1934 5.0625V3.5918C21.1934 3.24414 21.1562 2.93945 21.082 2.67773C21.0117 2.41211 20.9102 2.19141 20.7773 2.01562C20.6484 1.83594 20.498 1.70117 20.3262 1.61133C20.1582 1.52148 19.9766 1.47656 19.7812 1.47656C19.5664 1.47656 19.373 1.52539 19.2012 1.62305C19.0332 1.7168 18.8906 1.84766 18.7734 2.01562C18.6602 2.17969 18.5723 2.37305 18.5098 2.5957C18.4512 2.81445 18.4219 3.04883 18.4219 3.29883C18.4219 3.5332 18.4492 3.75977 18.5039 3.97852C18.5625 4.19336 18.6484 4.38477 18.7617 4.55273C18.875 4.7207 19.0176 4.85352 19.1895 4.95117C19.3613 5.04883 19.5625 5.09766 19.793 5.09766C20.0117 5.09766 20.2129 5.05664 20.3965 4.97461C20.5801 4.88867 20.7402 4.77344 20.877 4.62891C21.0137 4.48438 21.1211 4.32227 21.1992 4.14258C21.2773 3.96289 21.3203 3.7793 21.3281 3.5918L21.8672 3.75586C21.8672 4.05273 21.8047 4.3457 21.6797 4.63477C21.5586 4.91992 21.3887 5.18164 21.1699 5.41992C20.9551 5.6543 20.7031 5.8418 20.4141 5.98242C20.1289 6.12305 19.8184 6.19336 19.4824 6.19336C19.0762 6.19336 18.7168 6.11719 18.4043 5.96484C18.0957 5.80859 17.8379 5.59766 17.6309 5.33203C17.4277 5.06641 17.2754 4.76172 17.1738 4.41797C17.0723 4.07422 17.0215 3.71289 17.0215 3.33398C17.0215 2.92383 17.084 2.53906 17.209 2.17969C17.334 1.82031 17.5156 1.50391 17.7539 1.23047C17.9922 0.953125 18.2812 0.738281 18.6211 0.585938C18.9648 0.429687 19.3535 0.351562 19.7871 0.351562C20.248 0.351562 20.6523 0.441406 21 0.621094C21.3477 0.800781 21.6406 1.04883 21.8789 1.36523C22.1172 1.68164 22.2969 2.04883 22.418 2.4668C22.5391 2.88477 22.5996 3.33398 22.5996 3.81445V4.3125C22.5996 4.81641 22.5547 5.30273 22.4648 5.77148C22.375 6.23633 22.2285 6.66797 22.0254 7.06641C21.8262 7.46094 21.5625 7.80859 21.2344 8.10938C20.9102 8.40625 20.5117 8.63867 20.0391 8.80664C19.5703 8.9707 19.0195 9.05273 18.3867 9.05273H18.2578V7.88672ZM27.7969 0.439453V9H26.3848V2.11523L24.293 2.82422V1.6582L27.627 0.439453H27.7969ZM36.4277 0.46875V1.24219L33.0176 9H31.5293L34.9336 1.59375H30.5156V0.46875H36.4277ZM42.2285 4.0957H43.0723C43.4004 4.0957 43.6719 4.03906 43.8867 3.92578C44.1055 3.8125 44.2676 3.65625 44.373 3.45703C44.4785 3.25781 44.5312 3.0293 44.5312 2.77148C44.5312 2.50195 44.4824 2.27148 44.3848 2.08008C44.291 1.88477 44.1465 1.73438 43.9512 1.62891C43.7598 1.52344 43.5156 1.4707 43.2188 1.4707C42.9688 1.4707 42.7422 1.52148 42.5391 1.62305C42.3398 1.7207 42.1816 1.86133 42.0645 2.04492C41.9473 2.22461 41.8887 2.43945 41.8887 2.68945H40.4707C40.4707 2.23633 40.5898 1.83398 40.8281 1.48242C41.0664 1.13086 41.3906 0.855469 41.8008 0.65625C42.2148 0.453125 42.6797 0.351562 43.1953 0.351562C43.7461 0.351562 44.2266 0.443359 44.6367 0.626953C45.0508 0.806641 45.373 1.07617 45.6035 1.43555C45.834 1.79492 45.9492 2.24023 45.9492 2.77148C45.9492 3.01367 45.8926 3.25977 45.7793 3.50977C45.666 3.75977 45.498 3.98828 45.2754 4.19531C45.0527 4.39844 44.7754 4.56445 44.4434 4.69336C44.1113 4.81836 43.7266 4.88086 43.2891 4.88086H42.2285V4.0957ZM42.2285 5.19727V4.42383H43.2891C43.7891 4.42383 44.2148 4.48242 44.5664 4.59961C44.9219 4.7168 45.2109 4.87891 45.4336 5.08594C45.6562 5.28906 45.8184 5.52148 45.9199 5.7832C46.0254 6.04492 46.0781 6.32227 46.0781 6.61523C46.0781 7.01367 46.0059 7.36914 45.8613 7.68164C45.7207 7.99023 45.5195 8.25195 45.2578 8.4668C44.9961 8.68164 44.6895 8.84375 44.3379 8.95312C43.9902 9.0625 43.6113 9.11719 43.2012 9.11719C42.834 9.11719 42.4824 9.06641 42.1465 8.96484C41.8105 8.86328 41.5098 8.71289 41.2441 8.51367C40.9785 8.31055 40.7676 8.05859 40.6113 7.75781C40.459 7.45312 40.3828 7.10156 40.3828 6.70312H41.7949C41.7949 6.95703 41.8535 7.18164 41.9707 7.37695C42.0918 7.56836 42.2598 7.71875 42.4746 7.82812C42.6934 7.9375 42.9434 7.99219 43.2246 7.99219C43.5215 7.99219 43.7773 7.93945 43.9922 7.83398C44.207 7.72852 44.3711 7.57227 44.4844 7.36523C44.6016 7.1582 44.6602 6.9082 44.6602 6.61523C44.6602 6.2832 44.5957 6.01367 44.4668 5.80664C44.3379 5.59961 44.1543 5.44727 43.916 5.34961C43.6777 5.24805 43.3965 5.19727 43.0723 5.19727H42.2285ZM51.2461 0.439453V9H49.834V2.11523L47.7422 2.82422V1.6582L51.0762 0.439453H51.2461ZM59.7891 6.67383C59.7891 7.20508 59.666 7.65234 59.4199 8.01562C59.1738 8.37891 58.8379 8.6543 58.4121 8.8418C57.9902 9.02539 57.5137 9.11719 56.9824 9.11719C56.4512 9.11719 55.9727 9.02539 55.5469 8.8418C55.1211 8.6543 54.7852 8.37891 54.5391 8.01562C54.293 7.65234 54.1699 7.20508 54.1699 6.67383C54.1699 6.32227 54.2383 6.00391 54.375 5.71875C54.5117 5.42969 54.7051 5.18164 54.9551 4.97461C55.209 4.76367 55.5059 4.60156 55.8457 4.48828C56.1895 4.375 56.5645 4.31836 56.9707 4.31836C57.5098 4.31836 57.9922 4.41797 58.418 4.61719C58.8438 4.81641 59.1777 5.0918 59.4199 5.44336C59.666 5.79492 59.7891 6.20508 59.7891 6.67383ZM58.3711 6.60352C58.3711 6.31836 58.3125 6.06836 58.1953 5.85352C58.0781 5.63867 57.9141 5.47266 57.7031 5.35547C57.4922 5.23828 57.248 5.17969 56.9707 5.17969C56.6895 5.17969 56.4453 5.23828 56.2383 5.35547C56.0312 5.47266 55.8691 5.63867 55.752 5.85352C55.6387 6.06836 55.582 6.31836 55.582 6.60352C55.582 6.89258 55.6387 7.14258 55.752 7.35352C55.8652 7.56055 56.0273 7.71875 56.2383 7.82812C56.4492 7.9375 56.6973 7.99219 56.9824 7.99219C57.2676 7.99219 57.5137 7.9375 57.7207 7.82812C57.9277 7.71875 58.0879 7.56055 58.2012 7.35352C58.3145 7.14258 58.3711 6.89258 58.3711 6.60352ZM59.5957 2.71289C59.5957 3.13867 59.4824 3.51758 59.2559 3.84961C59.0332 4.18164 58.7246 4.44336 58.3301 4.63477C57.9355 4.82227 57.4863 4.91602 56.9824 4.91602C56.4746 4.91602 56.0215 4.82227 55.623 4.63477C55.2285 4.44336 54.918 4.18164 54.6914 3.84961C54.4688 3.51758 54.3574 3.13867 54.3574 2.71289C54.3574 2.20508 54.4688 1.77734 54.6914 1.42969C54.918 1.07812 55.2285 0.810547 55.623 0.626953C56.0176 0.443359 56.4688 0.351562 56.9766 0.351562C57.4844 0.351562 57.9355 0.443359 58.3301 0.626953C58.7246 0.810547 59.0332 1.07812 59.2559 1.42969C59.4824 1.77734 59.5957 2.20508 59.5957 2.71289ZM58.1836 2.75977C58.1836 2.50586 58.1328 2.2832 58.0312 2.0918C57.9336 1.89648 57.7949 1.74414 57.6152 1.63477C57.4355 1.52539 57.2227 1.4707 56.9766 1.4707C56.7305 1.4707 56.5176 1.52344 56.3379 1.62891C56.1582 1.73438 56.0195 1.88281 55.9219 2.07422C55.8242 2.26562 55.7754 2.49414 55.7754 2.75977C55.7754 3.02148 55.8242 3.25 55.9219 3.44531C56.0195 3.63672 56.1582 3.78711 56.3379 3.89648C56.5215 4.00586 56.7363 4.06055 56.9824 4.06055C57.2285 4.06055 57.4414 4.00586 57.6211 3.89648C57.8008 3.78711 57.9395 3.63672 58.0371 3.44531C58.1348 3.25 58.1836 3.02148 58.1836 2.75977ZM65.6777 4.0957H66.5215C66.8496 4.0957 67.1211 4.03906 67.3359 3.92578C67.5547 3.8125 67.7168 3.65625 67.8223 3.45703C67.9277 3.25781 67.9805 3.0293 67.9805 2.77148C67.9805 2.50195 67.9316 2.27148 67.834 2.08008C67.7402 1.88477 67.5957 1.73438 67.4004 1.62891C67.209 1.52344 66.9648 1.4707 66.668 1.4707C66.418 1.4707 66.1914 1.52148 65.9883 1.62305C65.7891 1.7207 65.6309 1.86133 65.5137 2.04492C65.3965 2.22461 65.3379 2.43945 65.3379 2.68945H63.9199C63.9199 2.23633 64.0391 1.83398 64.2773 1.48242C64.5156 1.13086 64.8398 0.855469 65.25 0.65625C65.6641 0.453125 66.1289 0.351562 66.6445 0.351562C67.1953 0.351562 67.6758 0.443359 68.0859 0.626953C68.5 0.806641 68.8223 1.07617 69.0527 1.43555C69.2832 1.79492 69.3984 2.24023 69.3984 2.77148C69.3984 3.01367 69.3418 3.25977 69.2285 3.50977C69.1152 3.75977 68.9473 3.98828 68.7246 4.19531C68.502 4.39844 68.2246 4.56445 67.8926 4.69336C67.5605 4.81836 67.1758 4.88086 66.7383 4.88086H65.6777V4.0957ZM65.6777 5.19727V4.42383H66.7383C67.2383 4.42383 67.6641 4.48242 68.0156 4.59961C68.3711 4.7168 68.6602 4.87891 68.8828 5.08594C69.1055 5.28906 69.2676 5.52148 69.3691 5.7832C69.4746 6.04492 69.5273 6.32227 69.5273 6.61523C69.5273 7.01367 69.4551 7.36914 69.3105 7.68164C69.1699 7.99023 68.9688 8.25195 68.707 8.4668C68.4453 8.68164 68.1387 8.84375 67.7871 8.95312C67.4395 9.0625 67.0605 9.11719 66.6504 9.11719C66.2832 9.11719 65.9316 9.06641 65.5957 8.96484C65.2598 8.86328 64.959 8.71289 64.6934 8.51367C64.4277 8.31055 64.2168 8.05859 64.0605 7.75781C63.9082 7.45312 63.832 7.10156 63.832 6.70312H65.2441C65.2441 6.95703 65.3027 7.18164 65.4199 7.37695C65.541 7.56836 65.709 7.71875 65.9238 7.82812C66.1426 7.9375 66.3926 7.99219 66.6738 7.99219C66.9707 7.99219 67.2266 7.93945 67.4414 7.83398C67.6562 7.72852 67.8203 7.57227 67.9336 7.36523C68.0508 7.1582 68.1094 6.9082 68.1094 6.61523C68.1094 6.2832 68.0449 6.01367 67.916 5.80664C67.7871 5.59961 67.6035 5.44727 67.3652 5.34961C67.127 5.24805 66.8457 5.19727 66.5215 5.19727H65.6777ZM76.418 6.67383C76.418 7.20508 76.2949 7.65234 76.0488 8.01562C75.8027 8.37891 75.4668 8.6543 75.041 8.8418C74.6191 9.02539 74.1426 9.11719 73.6113 9.11719C73.0801 9.11719 72.6016 9.02539 72.1758 8.8418C71.75 8.6543 71.4141 8.37891 71.168 8.01562C70.9219 7.65234 70.7988 7.20508 70.7988 6.67383C70.7988 6.32227 70.8672 6.00391 71.0039 5.71875C71.1406 5.42969 71.334 5.18164 71.584 4.97461C71.8379 4.76367 72.1348 4.60156 72.4746 4.48828C72.8184 4.375 73.1934 4.31836 73.5996 4.31836C74.1387 4.31836 74.6211 4.41797 75.0469 4.61719C75.4727 4.81641 75.8066 5.0918 76.0488 5.44336C76.2949 5.79492 76.418 6.20508 76.418 6.67383ZM75 6.60352C75 6.31836 74.9414 6.06836 74.8242 5.85352C74.707 5.63867 74.543 5.47266 74.332 5.35547C74.1211 5.23828 73.877 5.17969 73.5996 5.17969C73.3184 5.17969 73.0742 5.23828 72.8672 5.35547C72.6602 5.47266 72.498 5.63867 72.3809 5.85352C72.2676 6.06836 72.2109 6.31836 72.2109 6.60352C72.2109 6.89258 72.2676 7.14258 72.3809 7.35352C72.4941 7.56055 72.6562 7.71875 72.8672 7.82812C73.0781 7.9375 73.3262 7.99219 73.6113 7.99219C73.8965 7.99219 74.1426 7.9375 74.3496 7.82812C74.5566 7.71875 74.7168 7.56055 74.8301 7.35352C74.9434 7.14258 75 6.89258 75 6.60352ZM76.2246 2.71289C76.2246 3.13867 76.1113 3.51758 75.8848 3.84961C75.6621 4.18164 75.3535 4.44336 74.959 4.63477C74.5645 4.82227 74.1152 4.91602 73.6113 4.91602C73.1035 4.91602 72.6504 4.82227 72.252 4.63477C71.8574 4.44336 71.5469 4.18164 71.3203 3.84961C71.0977 3.51758 70.9863 3.13867 70.9863 2.71289C70.9863 2.20508 71.0977 1.77734 71.3203 1.42969C71.5469 1.07812 71.8574 0.810547 72.252 0.626953C72.6465 0.443359 73.0977 0.351562 73.6055 0.351562C74.1133 0.351562 74.5645 0.443359 74.959 0.626953C75.3535 0.810547 75.6621 1.07812 75.8848 1.42969C76.1113 1.77734 76.2246 2.20508 76.2246 2.71289ZM74.8125 2.75977C74.8125 2.50586 74.7617 2.2832 74.6602 2.0918C74.5625 1.89648 74.4238 1.74414 74.2441 1.63477C74.0645 1.52539 73.8516 1.4707 73.6055 1.4707C73.3594 1.4707 73.1465 1.52344 72.9668 1.62891C72.7871 1.73438 72.6484 1.88281 72.5508 2.07422C72.4531 2.26562 72.4043 2.49414 72.4043 2.75977C72.4043 3.02148 72.4531 3.25 72.5508 3.44531C72.6484 3.63672 72.7871 3.78711 72.9668 3.89648C73.1504 4.00586 73.3652 4.06055 73.6113 4.06055C73.8574 4.06055 74.0703 4.00586 74.25 3.89648C74.4297 3.78711 74.5684 3.63672 74.666 3.44531C74.7637 3.25 74.8125 3.02148 74.8125 2.75977ZM86.3672 7.875V9H80.6484V8.0332L83.4258 5.00391C83.7305 4.66016 83.9707 4.36328 84.1465 4.11328C84.3223 3.86328 84.4453 3.63867 84.5156 3.43945C84.5898 3.23633 84.627 3.03906 84.627 2.84766C84.627 2.57812 84.5762 2.3418 84.4746 2.13867C84.377 1.93164 84.2324 1.76953 84.041 1.65234C83.8496 1.53125 83.6172 1.4707 83.3438 1.4707C83.0273 1.4707 82.7617 1.53906 82.5469 1.67578C82.332 1.8125 82.1699 2.00195 82.0605 2.24414C81.9512 2.48242 81.8965 2.75586 81.8965 3.06445H80.4844C80.4844 2.56836 80.5977 2.11523 80.8242 1.70508C81.0508 1.29102 81.3789 0.962891 81.8086 0.720703C82.2383 0.474609 82.7559 0.351562 83.3613 0.351562C83.9316 0.351562 84.416 0.447266 84.8145 0.638672C85.2129 0.830078 85.5156 1.10156 85.7227 1.45312C85.9336 1.80469 86.0391 2.2207 86.0391 2.70117C86.0391 2.9668 85.9961 3.23047 85.9102 3.49219C85.8242 3.75391 85.7012 4.01562 85.541 4.27734C85.3848 4.53516 85.1992 4.79492 84.9844 5.05664C84.7695 5.31445 84.5332 5.57617 84.2754 5.8418L82.4297 7.875H86.3672ZM93.0469 6.67383C93.0469 7.20508 92.9238 7.65234 92.6777 8.01562C92.4316 8.37891 92.0957 8.6543 91.6699 8.8418C91.248 9.02539 90.7715 9.11719 90.2402 9.11719C89.709 9.11719 89.2305 9.02539 88.8047 8.8418C88.3789 8.6543 88.043 8.37891 87.7969 8.01562C87.5508 7.65234 87.4277 7.20508 87.4277 6.67383C87.4277 6.32227 87.4961 6.00391 87.6328 5.71875C87.7695 5.42969 87.9629 5.18164 88.2129 4.97461C88.4668 4.76367 88.7637 4.60156 89.1035 4.48828C89.4473 4.375 89.8223 4.31836 90.2285 4.31836C90.7676 4.31836 91.25 4.41797 91.6758 4.61719C92.1016 4.81641 92.4355 5.0918 92.6777 5.44336C92.9238 5.79492 93.0469 6.20508 93.0469 6.67383ZM91.6289 6.60352C91.6289 6.31836 91.5703 6.06836 91.4531 5.85352C91.3359 5.63867 91.1719 5.47266 90.9609 5.35547C90.75 5.23828 90.5059 5.17969 90.2285 5.17969C89.9473 5.17969 89.7031 5.23828 89.4961 5.35547C89.2891 5.47266 89.127 5.63867 89.0098 5.85352C88.8965 6.06836 88.8398 6.31836 88.8398 6.60352C88.8398 6.89258 88.8965 7.14258 89.0098 7.35352C89.123 7.56055 89.2852 7.71875 89.4961 7.82812C89.707 7.9375 89.9551 7.99219 90.2402 7.99219C90.5254 7.99219 90.7715 7.9375 90.9785 7.82812C91.1855 7.71875 91.3457 7.56055 91.459 7.35352C91.5723 7.14258 91.6289 6.89258 91.6289 6.60352ZM92.8535 2.71289C92.8535 3.13867 92.7402 3.51758 92.5137 3.84961C92.291 4.18164 91.9824 4.44336 91.5879 4.63477C91.1934 4.82227 90.7441 4.91602 90.2402 4.91602C89.7324 4.91602 89.2793 4.82227 88.8809 4.63477C88.4863 4.44336 88.1758 4.18164 87.9492 3.84961C87.7266 3.51758 87.6152 3.13867 87.6152 2.71289C87.6152 2.20508 87.7266 1.77734 87.9492 1.42969C88.1758 1.07812 88.4863 0.810547 88.8809 0.626953C89.2754 0.443359 89.7266 0.351562 90.2344 0.351562C90.7422 0.351562 91.1934 0.443359 91.5879 0.626953C91.9824 0.810547 92.291 1.07812 92.5137 1.42969C92.7402 1.77734 92.8535 2.20508 92.8535 2.71289ZM91.4414 2.75977C91.4414 2.50586 91.3906 2.2832 91.2891 2.0918C91.1914 1.89648 91.0527 1.74414 90.873 1.63477C90.6934 1.52539 90.4805 1.4707 90.2344 1.4707C89.9883 1.4707 89.7754 1.52344 89.5957 1.62891C89.416 1.73438 89.2773 1.88281 89.1797 2.07422C89.082 2.26562 89.0332 2.49414 89.0332 2.75977C89.0332 3.02148 89.082 3.25 89.1797 3.44531C89.2773 3.63672 89.416 3.78711 89.5957 3.89648C89.7793 4.00586 89.9941 4.06055 90.2402 4.06055C90.4863 4.06055 90.6992 4.00586 90.8789 3.89648C91.0586 3.78711 91.1973 3.63672 91.2949 3.44531C91.3926 3.25 91.4414 3.02148 91.4414 2.75977Z" fill="white"/>
</svg>
