<svg width="65" height="16" viewBox="0 0 65 16" fill="none" xmlns="http://www.w3.org/2000/svg">
<path d="M9.95117 12.9688V15H0.322266V13.2617L4.94141 8.27148C5.42318 7.72461 5.80404 7.24935 6.08398 6.8457C6.36393 6.44206 6.5625 6.07747 6.67969 5.75195C6.80339 5.41992 6.86523 5.10417 6.86523 4.80469C6.86523 4.36849 6.78711 3.98763 6.63086 3.66211C6.47461 3.33008 6.24674 3.07292 5.94727 2.89062C5.6543 2.70833 5.29297 2.61719 4.86328 2.61719C4.38802 2.61719 3.98112 2.72786 3.64258 2.94922C3.31055 3.16406 3.05664 3.46354 2.88086 3.84766C2.71159 4.23177 2.62695 4.67122 2.62695 5.16602H0.0390625C0.0390625 4.32617 0.234375 3.5612 0.625 2.87109C1.01562 2.17448 1.57552 1.61784 2.30469 1.20117C3.03385 0.784505 3.89974 0.576172 4.90234 0.576172C5.87891 0.576172 6.70573 0.738932 7.38281 1.06445C8.0599 1.38346 8.57422 1.83919 8.92578 2.43164C9.27734 3.02409 9.45312 3.73047 9.45312 4.55078C9.45312 5.00651 9.37826 5.45573 9.22852 5.89844C9.07878 6.34115 8.86719 6.7806 8.59375 7.2168C8.32682 7.64648 8.00781 8.08268 7.63672 8.52539C7.26562 8.9681 6.85221 9.42057 6.39648 9.88281L3.62305 12.9688H9.95117ZM21.1621 6.66992V9.0625C21.1621 10.1562 21.0514 11.0905 20.8301 11.8652C20.6087 12.64 20.2897 13.2747 19.873 13.7695C19.4564 14.2578 18.9583 14.6191 18.3789 14.8535C17.7995 15.0814 17.1549 15.1953 16.4453 15.1953C15.8789 15.1953 15.3516 15.1237 14.8633 14.9805C14.375 14.8307 13.9355 14.6029 13.5449 14.2969C13.1608 13.9844 12.8288 13.5872 12.5488 13.1055C12.2754 12.6237 12.0638 12.0475 11.9141 11.377C11.7708 10.7064 11.6992 9.9349 11.6992 9.0625V6.66992C11.6992 5.57617 11.8099 4.64518 12.0312 3.87695C12.2591 3.10872 12.5814 2.48047 12.998 1.99219C13.4147 1.50391 13.9128 1.14909 14.4922 0.927734C15.0716 0.69987 15.7161 0.585938 16.4258 0.585938C16.9987 0.585938 17.526 0.657552 18.0078 0.800781C18.4961 0.94401 18.9323 1.16862 19.3164 1.47461C19.707 1.77409 20.0391 2.16471 20.3125 2.64648C20.5859 3.12174 20.7943 3.69466 20.9375 4.36523C21.0872 5.0293 21.1621 5.79753 21.1621 6.66992ZM18.584 9.41406V6.30859C18.584 5.76172 18.5514 5.28646 18.4863 4.88281C18.4277 4.47266 18.3398 4.12435 18.2227 3.83789C18.1055 3.55143 17.959 3.32031 17.7832 3.14453C17.6074 2.96224 17.4056 2.82878 17.1777 2.74414C16.9499 2.65951 16.6992 2.61719 16.4258 2.61719C16.0872 2.61719 15.7845 2.68555 15.5176 2.82227C15.2507 2.95247 15.026 3.16081 14.8438 3.44727C14.6615 3.73372 14.5215 4.11458 14.4238 4.58984C14.3327 5.05859 14.2871 5.63151 14.2871 6.30859V9.41406C14.2871 9.96094 14.3164 10.4395 14.375 10.8496C14.4401 11.2598 14.5312 11.6113 14.6484 11.9043C14.7721 12.1973 14.9186 12.4382 15.0879 12.627C15.2637 12.8092 15.4655 12.946 15.6934 13.0371C15.9212 13.1217 16.1719 13.1641 16.4453 13.1641C16.7904 13.1641 17.0931 13.0957 17.3535 12.959C17.6204 12.8223 17.8451 12.6074 18.0273 12.3145C18.2096 12.015 18.3464 11.6276 18.4375 11.1523C18.5352 10.6706 18.584 10.0911 18.584 9.41406ZM32.8027 12.9688V15H23.1738V13.2617L27.793 8.27148C28.2747 7.72461 28.6556 7.24935 28.9355 6.8457C29.2155 6.44206 29.4141 6.07747 29.5312 5.75195C29.6549 5.41992 29.7168 5.10417 29.7168 4.80469C29.7168 4.36849 29.6387 3.98763 29.4824 3.66211C29.3262 3.33008 29.0983 3.07292 28.7988 2.89062C28.5059 2.70833 28.1445 2.61719 27.7148 2.61719C27.2396 2.61719 26.8327 2.72786 26.4941 2.94922C26.1621 3.16406 25.9082 3.46354 25.7324 3.84766C25.5632 4.23177 25.4785 4.67122 25.4785 5.16602H22.8906C22.8906 4.32617 23.0859 3.5612 23.4766 2.87109C23.8672 2.17448 24.4271 1.61784 25.1562 1.20117C25.8854 0.784505 26.7513 0.576172 27.7539 0.576172C28.7305 0.576172 29.5573 0.738932 30.2344 1.06445C30.9115 1.38346 31.4258 1.83919 31.7773 2.43164C32.1289 3.02409 32.3047 3.73047 32.3047 4.55078C32.3047 5.00651 32.2298 5.45573 32.0801 5.89844C31.9303 6.34115 31.7188 6.7806 31.4453 7.2168C31.1784 7.64648 30.8594 8.08268 30.4883 8.52539C30.1172 8.9681 29.7038 9.42057 29.248 9.88281L26.4746 12.9688H32.8027ZM44.4727 9.81445V11.8457H34.2285L34.1211 10.2832L40.1465 0.78125H42.207L39.9805 4.56055L36.748 9.81445H44.4727ZM42.7832 0.78125V15H40.1953V0.78125H42.7832ZM59.4238 9.16992H60.8984C60.8984 10.1921 60.6055 10.9603 60.0195 11.4746C59.4401 11.9824 58.6491 12.2363 57.6465 12.2363C56.9499 12.2363 56.3477 12.0768 55.8398 11.7578C55.332 11.4388 54.9382 10.9961 54.6582 10.4297C54.3848 9.86328 54.248 9.20573 54.248 8.45703V7.31445C54.248 6.56576 54.3848 5.9082 54.6582 5.3418C54.9382 4.77539 55.332 4.33268 55.8398 4.01367C56.3477 3.69466 56.9499 3.53516 57.6465 3.53516C58.6491 3.53516 59.4434 3.78906 60.0293 4.29688C60.6152 4.80469 60.9082 5.56966 60.9082 6.5918H59.4336C59.4336 5.96029 59.2806 5.50781 58.9746 5.23438C58.6751 4.96094 58.2324 4.82422 57.6465 4.82422C57.2233 4.82422 56.8685 4.93164 56.582 5.14648C56.2956 5.35482 56.0775 5.64453 55.9277 6.01562C55.7845 6.38672 55.7129 6.81641 55.7129 7.30469V8.45703C55.7129 8.94531 55.7845 9.37826 55.9277 9.75586C56.0775 10.127 56.2956 10.4199 56.582 10.6348C56.8685 10.8431 57.2233 10.9473 57.6465 10.9473C58.2324 10.9473 58.6751 10.8105 58.9746 10.5371C59.2741 10.2637 59.4238 9.80794 59.4238 9.16992ZM52.0117 7.88086C52.0117 8.74023 52.1582 9.54427 52.4512 10.293C52.7507 11.0352 53.1641 11.6862 53.6914 12.2461C54.2253 12.7995 54.8405 13.2324 55.5371 13.5449C56.2337 13.8509 56.9824 14.0039 57.7832 14.0039C58.5775 14.0039 59.3229 13.8509 60.0195 13.5449C60.7161 13.2324 61.3281 12.7995 61.8555 12.2461C62.3828 11.6862 62.7962 11.0352 63.0957 10.293C63.3952 9.54427 63.5449 8.74023 63.5449 7.88086C63.5449 7.01497 63.3952 6.21419 63.0957 5.47852C62.7962 4.73633 62.3828 4.08854 61.8555 3.53516C61.3281 2.98177 60.7161 2.55208 60.0195 2.24609C59.3229 1.93359 58.5775 1.77734 57.7832 1.77734C56.9824 1.77734 56.2337 1.93359 55.5371 2.24609C54.8405 2.55208 54.2253 2.98177 53.6914 3.53516C53.1641 4.08854 52.7507 4.73633 52.4512 5.47852C52.1582 6.21419 52.0117 7.01497 52.0117 7.88086ZM50.8496 7.88086C50.8496 6.8457 51.0286 5.88542 51.3867 5C51.7448 4.11458 52.2428 3.3431 52.8809 2.68555C53.5189 2.02148 54.2546 1.50716 55.0879 1.14258C55.9277 0.771484 56.8262 0.585938 57.7832 0.585938C58.7402 0.585938 59.6354 0.771484 60.4688 1.14258C61.3086 1.50716 62.0443 2.02148 62.6758 2.68555C63.3138 3.3431 63.8118 4.11458 64.1699 5C64.528 5.88542 64.707 6.8457 64.707 7.88086C64.707 8.91602 64.528 9.8763 64.1699 10.7617C63.8118 11.6471 63.3138 12.4219 62.6758 13.0859C62.0443 13.75 61.3086 14.2676 60.4688 14.6387C59.6354 15.0098 58.7402 15.1953 57.7832 15.1953C56.8262 15.1953 55.9277 15.0098 55.0879 14.6387C54.2546 14.2676 53.5189 13.75 52.8809 13.0859C52.2428 12.4219 51.7448 11.6471 51.3867 10.7617C51.0286 9.8763 50.8496 8.91602 50.8496 7.88086Z" fill="white"/>
</svg>
