<svg width="140" height="12" viewBox="0 0 140 12" fill="none" xmlns="http://www.w3.org/2000/svg">
<path d="M2.32031 6.60352L6.10547 0.46875H7.57617V9H6.10547V2.85938L2.32031 9H0.855469V0.46875H2.32031V6.60352ZM13.5293 5.30859V6.42188H10.248V5.30859H13.5293ZM10.6582 2.66016V9H9.24609V2.66016H10.6582ZM14.5488 2.66016V9H13.1367V2.66016H14.5488ZM18.9961 2.66016V9H17.5781V2.66016H18.9961ZM21.0762 2.66016V3.77344H15.5332V2.66016H21.0762ZM24.3809 9.11719C23.9121 9.11719 23.4883 9.04102 23.1094 8.88867C22.7344 8.73242 22.4141 8.51562 22.1484 8.23828C21.8867 7.96094 21.6855 7.63477 21.5449 7.25977C21.4043 6.88477 21.334 6.48047 21.334 6.04688V5.8125C21.334 5.31641 21.4062 4.86719 21.5508 4.46484C21.6953 4.0625 21.8965 3.71875 22.1543 3.43359C22.4121 3.14453 22.7168 2.92383 23.0684 2.77148C23.4199 2.61914 23.8008 2.54297 24.2109 2.54297C24.6641 2.54297 25.0605 2.61914 25.4004 2.77148C25.7402 2.92383 26.0215 3.13867 26.2441 3.41602C26.4707 3.68945 26.6387 4.01562 26.748 4.39453C26.8613 4.77344 26.918 5.19141 26.918 5.64844V6.25195H22.0195V5.23828H25.5234V5.12695C25.5156 4.87305 25.4648 4.63477 25.3711 4.41211C25.2812 4.18945 25.1426 4.00977 24.9551 3.87305C24.7676 3.73633 24.5176 3.66797 24.2051 3.66797C23.9707 3.66797 23.7617 3.71875 23.5781 3.82031C23.3984 3.91797 23.248 4.06055 23.127 4.24805C23.0059 4.43555 22.9121 4.66211 22.8457 4.92773C22.7832 5.18945 22.752 5.48438 22.752 5.8125V6.04688C22.752 6.32422 22.7891 6.58203 22.8633 6.82031C22.9414 7.05469 23.0547 7.25977 23.2031 7.43555C23.3516 7.61133 23.5312 7.75 23.7422 7.85156C23.9531 7.94922 24.1934 7.99805 24.4629 7.99805C24.8027 7.99805 25.1055 7.92969 25.3711 7.79297C25.6367 7.65625 25.8672 7.46289 26.0625 7.21289L26.8066 7.93359C26.6699 8.13281 26.4922 8.32422 26.2734 8.50781C26.0547 8.6875 25.7871 8.83398 25.4707 8.94727C25.1582 9.06055 24.7949 9.11719 24.3809 9.11719ZM32.2383 2.66016V3.78516H29.4727V9H28.0605V2.66016H32.2383ZM34.4766 3.87891V11.4375H33.0645V2.66016H34.3652L34.4766 3.87891ZM38.6074 5.77148V5.89453C38.6074 6.35547 38.5527 6.7832 38.4434 7.17773C38.3379 7.56836 38.1797 7.91016 37.9688 8.20312C37.7617 8.49219 37.5059 8.7168 37.2012 8.87695C36.8965 9.03711 36.5449 9.11719 36.1465 9.11719C35.752 9.11719 35.4062 9.04492 35.1094 8.90039C34.8164 8.75195 34.5684 8.54297 34.3652 8.27344C34.1621 8.00391 33.998 7.6875 33.873 7.32422C33.752 6.95703 33.666 6.55469 33.6152 6.11719V5.64258C33.666 5.17773 33.752 4.75586 33.873 4.37695C33.998 3.99805 34.1621 3.67188 34.3652 3.39844C34.5684 3.125 34.8164 2.91406 35.1094 2.76562C35.4023 2.61719 35.7441 2.54297 36.1348 2.54297C36.5332 2.54297 36.8867 2.62109 37.1953 2.77734C37.5039 2.92969 37.7637 3.14844 37.9746 3.43359C38.1855 3.71484 38.3438 4.05469 38.4492 4.45312C38.5547 4.84766 38.6074 5.28711 38.6074 5.77148ZM37.1953 5.89453V5.77148C37.1953 5.47852 37.168 5.20703 37.1133 4.95703C37.0586 4.70312 36.9727 4.48047 36.8555 4.28906C36.7383 4.09766 36.5879 3.94922 36.4043 3.84375C36.2246 3.73438 36.0078 3.67969 35.7539 3.67969C35.5039 3.67969 35.2891 3.72266 35.1094 3.80859C34.9297 3.89062 34.7793 4.00586 34.6582 4.1543C34.5371 4.30273 34.4434 4.47656 34.377 4.67578C34.3105 4.87109 34.2637 5.08398 34.2363 5.31445V6.45117C34.2832 6.73242 34.3633 6.99023 34.4766 7.22461C34.5898 7.45898 34.75 7.64648 34.957 7.78711C35.168 7.92383 35.4375 7.99219 35.7656 7.99219C36.0195 7.99219 36.2363 7.9375 36.416 7.82812C36.5957 7.71875 36.7422 7.56836 36.8555 7.37695C36.9727 7.18164 37.0586 6.95703 37.1133 6.70312C37.168 6.44922 37.1953 6.17969 37.1953 5.89453ZM43.3828 7.72852V4.70508C43.3828 4.47852 43.3418 4.2832 43.2598 4.11914C43.1777 3.95508 43.0527 3.82812 42.8848 3.73828C42.7207 3.64844 42.5137 3.60352 42.2637 3.60352C42.0332 3.60352 41.834 3.64258 41.666 3.7207C41.498 3.79883 41.3672 3.9043 41.2734 4.03711C41.1797 4.16992 41.1328 4.32031 41.1328 4.48828H39.7266C39.7266 4.23828 39.7871 3.99609 39.9082 3.76172C40.0293 3.52734 40.2051 3.31836 40.4355 3.13477C40.666 2.95117 40.9414 2.80664 41.2617 2.70117C41.582 2.5957 41.9414 2.54297 42.3398 2.54297C42.8164 2.54297 43.2383 2.62305 43.6055 2.7832C43.9766 2.94336 44.2676 3.18555 44.4785 3.50977C44.6934 3.83008 44.8008 4.23242 44.8008 4.7168V7.53516C44.8008 7.82422 44.8203 8.08398 44.8594 8.31445C44.9023 8.54102 44.9629 8.73828 45.041 8.90625V9H43.5938C43.5273 8.84766 43.4746 8.6543 43.4355 8.41992C43.4004 8.18164 43.3828 7.95117 43.3828 7.72852ZM43.5879 5.14453L43.5996 6.01758H42.5859C42.3242 6.01758 42.0938 6.04297 41.8945 6.09375C41.6953 6.14062 41.5293 6.21094 41.3965 6.30469C41.2637 6.39844 41.1641 6.51172 41.0977 6.64453C41.0312 6.77734 40.998 6.92773 40.998 7.0957C40.998 7.26367 41.0371 7.41797 41.1152 7.55859C41.1934 7.69531 41.3066 7.80273 41.4551 7.88086C41.6074 7.95898 41.791 7.99805 42.0059 7.99805C42.2949 7.99805 42.5469 7.93945 42.7617 7.82227C42.9805 7.70117 43.1523 7.55469 43.2773 7.38281C43.4023 7.20703 43.4688 7.04102 43.4766 6.88477L43.9336 7.51172C43.8867 7.67188 43.8066 7.84375 43.6934 8.02734C43.5801 8.21094 43.4316 8.38672 43.248 8.55469C43.0684 8.71875 42.8516 8.85352 42.5977 8.95898C42.3477 9.06445 42.0586 9.11719 41.7305 9.11719C41.3164 9.11719 40.9473 9.03516 40.623 8.87109C40.2988 8.70312 40.0449 8.47852 39.8613 8.19727C39.6777 7.91211 39.5859 7.58984 39.5859 7.23047C39.5859 6.89453 39.6484 6.59766 39.7734 6.33984C39.9023 6.07812 40.0898 5.85938 40.3359 5.68359C40.5859 5.50781 40.8906 5.375 41.25 5.28516C41.6094 5.19141 42.0195 5.14453 42.4805 5.14453H43.5879ZM46.3242 9V2.66016H47.7363V7.875H50.2207V2.66016H51.6387V9H46.3242ZM52.5 7.88086L52.3887 10.8809H51.0938V9H50.332V7.88086H52.5ZM54.9551 6.9375L57.4453 2.66016H58.8574V9H57.4453V4.7168L54.9551 9H53.543V2.66016H54.9551V6.9375ZM61.6875 5.90039H63.1523L61.3535 9H59.8945L61.6875 5.90039ZM62.7188 2.66016H65.4375V9H64.0312V3.77344H62.7188C62.4531 3.77344 62.2344 3.82031 62.0625 3.91406C61.8906 4.00391 61.7637 4.12305 61.6816 4.27148C61.5996 4.41602 61.5586 4.56445 61.5586 4.7168C61.5586 4.86914 61.5957 5.01562 61.6699 5.15625C61.748 5.29688 61.8672 5.41211 62.0273 5.50195C62.1914 5.5918 62.3965 5.63672 62.6426 5.63672H64.5059V6.66797H62.6426C62.252 6.66797 61.9023 6.61914 61.5938 6.52148C61.2852 6.41992 61.0234 6.28125 60.8086 6.10547C60.5938 5.92578 60.4297 5.7168 60.3164 5.47852C60.2031 5.23633 60.1465 4.97266 60.1465 4.6875C60.1465 4.39453 60.2051 4.125 60.3223 3.87891C60.4395 3.63281 60.6074 3.41797 60.8262 3.23438C61.0488 3.05078 61.3184 2.91016 61.6348 2.8125C61.9551 2.71094 62.3164 2.66016 62.7188 2.66016ZM72.5859 7.99219C72.8164 7.99219 73.0234 7.94727 73.207 7.85742C73.3945 7.76367 73.5449 7.63477 73.6582 7.4707C73.7754 7.30664 73.8398 7.11719 73.8516 6.90234H75.1816C75.1738 7.3125 75.0527 7.68555 74.8184 8.02148C74.584 8.35742 74.2734 8.625 73.8867 8.82422C73.5 9.01953 73.0723 9.11719 72.6035 9.11719C72.1191 9.11719 71.6973 9.03516 71.3379 8.87109C70.9785 8.70312 70.6797 8.47266 70.4414 8.17969C70.2031 7.88672 70.0234 7.54883 69.9023 7.16602C69.7852 6.7832 69.7266 6.37305 69.7266 5.93555V5.73047C69.7266 5.29297 69.7852 4.88281 69.9023 4.5C70.0234 4.11328 70.2031 3.77344 70.4414 3.48047C70.6797 3.1875 70.9785 2.95898 71.3379 2.79492C71.6973 2.62695 72.1172 2.54297 72.5977 2.54297C73.1055 2.54297 73.5508 2.64453 73.9336 2.84766C74.3164 3.04688 74.6172 3.32617 74.8359 3.68555C75.0586 4.04102 75.1738 4.45508 75.1816 4.92773H73.8516C73.8398 4.69336 73.7812 4.48242 73.6758 4.29492C73.5742 4.10352 73.4297 3.95117 73.2422 3.83789C73.0586 3.72461 72.8379 3.66797 72.5801 3.66797C72.2949 3.66797 72.0586 3.72656 71.8711 3.84375C71.6836 3.95703 71.5371 4.11328 71.4316 4.3125C71.3262 4.50781 71.25 4.72852 71.2031 4.97461C71.1602 5.2168 71.1387 5.46875 71.1387 5.73047V5.93555C71.1387 6.19727 71.1602 6.45117 71.2031 6.69727C71.2461 6.94336 71.3203 7.16406 71.4258 7.35938C71.5352 7.55078 71.6836 7.70508 71.8711 7.82227C72.0586 7.93555 72.2969 7.99219 72.5859 7.99219ZM81.8438 7.99219C82.0742 7.99219 82.2812 7.94727 82.4648 7.85742C82.6523 7.76367 82.8027 7.63477 82.916 7.4707C83.0332 7.30664 83.0977 7.11719 83.1094 6.90234H84.4395C84.4316 7.3125 84.3105 7.68555 84.0762 8.02148C83.8418 8.35742 83.5312 8.625 83.1445 8.82422C82.7578 9.01953 82.3301 9.11719 81.8613 9.11719C81.377 9.11719 80.9551 9.03516 80.5957 8.87109C80.2363 8.70312 79.9375 8.47266 79.6992 8.17969C79.4609 7.88672 79.2812 7.54883 79.1602 7.16602C79.043 6.7832 78.9844 6.37305 78.9844 5.93555V5.73047C78.9844 5.29297 79.043 4.88281 79.1602 4.5C79.2812 4.11328 79.4609 3.77344 79.6992 3.48047C79.9375 3.1875 80.2363 2.95898 80.5957 2.79492C80.9551 2.62695 81.375 2.54297 81.8555 2.54297C82.3633 2.54297 82.8086 2.64453 83.1914 2.84766C83.5742 3.04688 83.875 3.32617 84.0938 3.68555C84.3164 4.04102 84.4316 4.45508 84.4395 4.92773H83.1094C83.0977 4.69336 83.0391 4.48242 82.9336 4.29492C82.832 4.10352 82.6875 3.95117 82.5 3.83789C82.3164 3.72461 82.0957 3.66797 81.8379 3.66797C81.5527 3.66797 81.3164 3.72656 81.1289 3.84375C80.9414 3.95703 80.7949 4.11328 80.6895 4.3125C80.584 4.50781 80.5078 4.72852 80.4609 4.97461C80.418 5.2168 80.3965 5.46875 80.3965 5.73047V5.93555C80.3965 6.19727 80.418 6.45117 80.4609 6.69727C80.5039 6.94336 80.5781 7.16406 80.6836 7.35938C80.793 7.55078 80.9414 7.70508 81.1289 7.82227C81.3164 7.93555 81.5547 7.99219 81.8438 7.99219ZM88.6055 6.28711H86.5781L86.5664 5.29102H88.2305C88.5039 5.29102 88.7285 5.26367 88.9043 5.20898C89.084 5.1543 89.2168 5.07227 89.3027 4.96289C89.3887 4.84961 89.4316 4.71289 89.4316 4.55273C89.4316 4.41992 89.4062 4.30469 89.3555 4.20703C89.3047 4.10547 89.2266 4.02344 89.1211 3.96094C89.0195 3.89453 88.8906 3.84766 88.7344 3.82031C88.582 3.78906 88.4043 3.77344 88.2012 3.77344H87.0469V9H85.6348V2.66016H88.2012C88.6074 2.66016 88.9727 2.69531 89.2969 2.76562C89.625 2.83594 89.9043 2.94336 90.1348 3.08789C90.3652 3.23242 90.541 3.41602 90.6621 3.63867C90.7871 3.85742 90.8496 4.11523 90.8496 4.41211C90.8496 4.60742 90.8066 4.79102 90.7207 4.96289C90.6387 5.13477 90.5156 5.28711 90.3516 5.41992C90.1875 5.55273 89.9863 5.66211 89.748 5.74805C89.5098 5.83008 89.2363 5.88086 88.9277 5.90039L88.6055 6.28711ZM88.6055 9H86.168L86.7305 7.88672H88.6055C88.8555 7.88672 89.0625 7.85547 89.2266 7.79297C89.3906 7.73047 89.5117 7.64062 89.5898 7.52344C89.6719 7.40234 89.7129 7.25977 89.7129 7.0957C89.7129 6.92773 89.6738 6.7832 89.5957 6.66211C89.5176 6.54102 89.3965 6.44922 89.2324 6.38672C89.0723 6.32031 88.8633 6.28711 88.6055 6.28711H86.9941L87.0059 5.29102H88.9219L89.3262 5.67773C89.7285 5.70508 90.0625 5.79102 90.3281 5.93555C90.5938 6.08008 90.793 6.26172 90.9258 6.48047C91.0586 6.69922 91.125 6.9375 91.125 7.19531C91.125 7.49219 91.0684 7.75391 90.9551 7.98047C90.8457 8.20703 90.6816 8.39648 90.4629 8.54883C90.248 8.69727 89.9844 8.81055 89.6719 8.88867C89.3594 8.96289 89.0039 9 88.6055 9ZM93.7617 3.87891V11.4375H92.3496V2.66016H93.6504L93.7617 3.87891ZM97.8926 5.77148V5.89453C97.8926 6.35547 97.8379 6.7832 97.7285 7.17773C97.623 7.56836 97.4648 7.91016 97.2539 8.20312C97.0469 8.49219 96.791 8.7168 96.4863 8.87695C96.1816 9.03711 95.8301 9.11719 95.4316 9.11719C95.0371 9.11719 94.6914 9.04492 94.3945 8.90039C94.1016 8.75195 93.8535 8.54297 93.6504 8.27344C93.4473 8.00391 93.2832 7.6875 93.1582 7.32422C93.0371 6.95703 92.9512 6.55469 92.9004 6.11719V5.64258C92.9512 5.17773 93.0371 4.75586 93.1582 4.37695C93.2832 3.99805 93.4473 3.67188 93.6504 3.39844C93.8535 3.125 94.1016 2.91406 94.3945 2.76562C94.6875 2.61719 95.0293 2.54297 95.4199 2.54297C95.8184 2.54297 96.1719 2.62109 96.4805 2.77734C96.7891 2.92969 97.0488 3.14844 97.2598 3.43359C97.4707 3.71484 97.6289 4.05469 97.7344 4.45312C97.8398 4.84766 97.8926 5.28711 97.8926 5.77148ZM96.4805 5.89453V5.77148C96.4805 5.47852 96.4531 5.20703 96.3984 4.95703C96.3438 4.70312 96.2578 4.48047 96.1406 4.28906C96.0234 4.09766 95.873 3.94922 95.6895 3.84375C95.5098 3.73438 95.293 3.67969 95.0391 3.67969C94.7891 3.67969 94.5742 3.72266 94.3945 3.80859C94.2148 3.89062 94.0645 4.00586 93.9434 4.1543C93.8223 4.30273 93.7285 4.47656 93.6621 4.67578C93.5957 4.87109 93.5488 5.08398 93.5215 5.31445V6.45117C93.5684 6.73242 93.6484 6.99023 93.7617 7.22461C93.875 7.45898 94.0352 7.64648 94.2422 7.78711C94.4531 7.92383 94.7227 7.99219 95.0508 7.99219C95.3047 7.99219 95.5215 7.9375 95.7012 7.82812C95.8809 7.71875 96.0273 7.56836 96.1406 7.37695C96.2578 7.18164 96.3438 6.95703 96.3984 6.70312C96.4531 6.44922 96.4805 6.17969 96.4805 5.89453ZM102.176 6.28711H100.148L100.137 5.29102H101.801C102.074 5.29102 102.299 5.26367 102.475 5.20898C102.654 5.1543 102.787 5.07227 102.873 4.96289C102.959 4.84961 103.002 4.71289 103.002 4.55273C103.002 4.41992 102.977 4.30469 102.926 4.20703C102.875 4.10547 102.797 4.02344 102.691 3.96094C102.59 3.89453 102.461 3.84766 102.305 3.82031C102.152 3.78906 101.975 3.77344 101.771 3.77344H100.617V9H99.2051V2.66016H101.771C102.178 2.66016 102.543 2.69531 102.867 2.76562C103.195 2.83594 103.475 2.94336 103.705 3.08789C103.936 3.23242 104.111 3.41602 104.232 3.63867C104.357 3.85742 104.42 4.11523 104.42 4.41211C104.42 4.60742 104.377 4.79102 104.291 4.96289C104.209 5.13477 104.086 5.28711 103.922 5.41992C103.758 5.55273 103.557 5.66211 103.318 5.74805C103.08 5.83008 102.807 5.88086 102.498 5.90039L102.176 6.28711ZM102.176 9H99.7383L100.301 7.88672H102.176C102.426 7.88672 102.633 7.85547 102.797 7.79297C102.961 7.73047 103.082 7.64062 103.16 7.52344C103.242 7.40234 103.283 7.25977 103.283 7.0957C103.283 6.92773 103.244 6.7832 103.166 6.66211C103.088 6.54102 102.967 6.44922 102.803 6.38672C102.643 6.32031 102.434 6.28711 102.176 6.28711H100.564L100.576 5.29102H102.492L102.896 5.67773C103.299 5.70508 103.633 5.79102 103.898 5.93555C104.164 6.08008 104.363 6.26172 104.496 6.48047C104.629 6.69922 104.695 6.9375 104.695 7.19531C104.695 7.49219 104.639 7.75391 104.525 7.98047C104.416 8.20703 104.252 8.39648 104.033 8.54883C103.818 8.69727 103.555 8.81055 103.242 8.88867C102.93 8.96289 102.574 9 102.176 9ZM107.373 6.9375L109.863 2.66016H111.275V9H109.863V4.7168L107.373 9H105.961V2.66016H107.373V6.9375ZM115.359 7.99219C115.59 7.99219 115.797 7.94727 115.98 7.85742C116.168 7.76367 116.318 7.63477 116.432 7.4707C116.549 7.30664 116.613 7.11719 116.625 6.90234H117.955C117.947 7.3125 117.826 7.68555 117.592 8.02148C117.357 8.35742 117.047 8.625 116.66 8.82422C116.273 9.01953 115.846 9.11719 115.377 9.11719C114.893 9.11719 114.471 9.03516 114.111 8.87109C113.752 8.70312 113.453 8.47266 113.215 8.17969C112.977 7.88672 112.797 7.54883 112.676 7.16602C112.559 6.7832 112.5 6.37305 112.5 5.93555V5.73047C112.5 5.29297 112.559 4.88281 112.676 4.5C112.797 4.11328 112.977 3.77344 113.215 3.48047C113.453 3.1875 113.752 2.95898 114.111 2.79492C114.471 2.62695 114.891 2.54297 115.371 2.54297C115.879 2.54297 116.324 2.64453 116.707 2.84766C117.09 3.04688 117.391 3.32617 117.609 3.68555C117.832 4.04102 117.947 4.45508 117.955 4.92773H116.625C116.613 4.69336 116.555 4.48242 116.449 4.29492C116.348 4.10352 116.203 3.95117 116.016 3.83789C115.832 3.72461 115.611 3.66797 115.354 3.66797C115.068 3.66797 114.832 3.72656 114.645 3.84375C114.457 3.95703 114.311 4.11328 114.205 4.3125C114.1 4.50781 114.023 4.72852 113.977 4.97461C113.934 5.2168 113.912 5.46875 113.912 5.73047V5.93555C113.912 6.19727 113.934 6.45117 113.977 6.69727C114.02 6.94336 114.094 7.16406 114.199 7.35938C114.309 7.55078 114.457 7.70508 114.645 7.82227C114.832 7.93555 115.07 7.99219 115.359 7.99219ZM122.613 7.72852V4.70508C122.613 4.47852 122.572 4.2832 122.49 4.11914C122.408 3.95508 122.283 3.82812 122.115 3.73828C121.951 3.64844 121.744 3.60352 121.494 3.60352C121.264 3.60352 121.064 3.64258 120.896 3.7207C120.729 3.79883 120.598 3.9043 120.504 4.03711C120.41 4.16992 120.363 4.32031 120.363 4.48828H118.957C118.957 4.23828 119.018 3.99609 119.139 3.76172C119.26 3.52734 119.436 3.31836 119.666 3.13477C119.896 2.95117 120.172 2.80664 120.492 2.70117C120.812 2.5957 121.172 2.54297 121.57 2.54297C122.047 2.54297 122.469 2.62305 122.836 2.7832C123.207 2.94336 123.498 3.18555 123.709 3.50977C123.924 3.83008 124.031 4.23242 124.031 4.7168V7.53516C124.031 7.82422 124.051 8.08398 124.09 8.31445C124.133 8.54102 124.193 8.73828 124.271 8.90625V9H122.824C122.758 8.84766 122.705 8.6543 122.666 8.41992C122.631 8.18164 122.613 7.95117 122.613 7.72852ZM122.818 5.14453L122.83 6.01758H121.816C121.555 6.01758 121.324 6.04297 121.125 6.09375C120.926 6.14062 120.76 6.21094 120.627 6.30469C120.494 6.39844 120.395 6.51172 120.328 6.64453C120.262 6.77734 120.229 6.92773 120.229 7.0957C120.229 7.26367 120.268 7.41797 120.346 7.55859C120.424 7.69531 120.537 7.80273 120.686 7.88086C120.838 7.95898 121.021 7.99805 121.236 7.99805C121.525 7.99805 121.777 7.93945 121.992 7.82227C122.211 7.70117 122.383 7.55469 122.508 7.38281C122.633 7.20703 122.699 7.04102 122.707 6.88477L123.164 7.51172C123.117 7.67188 123.037 7.84375 122.924 8.02734C122.811 8.21094 122.662 8.38672 122.479 8.55469C122.299 8.71875 122.082 8.85352 121.828 8.95898C121.578 9.06445 121.289 9.11719 120.961 9.11719C120.547 9.11719 120.178 9.03516 119.854 8.87109C119.529 8.70312 119.275 8.47852 119.092 8.19727C118.908 7.91211 118.816 7.58984 118.816 7.23047C118.816 6.89453 118.879 6.59766 119.004 6.33984C119.133 6.07812 119.32 5.85938 119.566 5.68359C119.816 5.50781 120.121 5.375 120.48 5.28516C120.84 5.19141 121.25 5.14453 121.711 5.14453H122.818ZM129.275 7.28906L131.162 2.66016H132.387L129.756 9H128.795L126.17 2.66016H127.395L129.275 7.28906ZM127.031 2.66016V9H125.619V2.66016H127.031ZM131.52 9V2.66016H132.938V9H131.52ZM135.979 6.9375L138.469 2.66016H139.881V9H138.469V4.7168L135.979 9H134.566V2.66016H135.979V6.9375Z" fill="white"/>
</svg>
