<svg width="79" height="10" viewBox="0 0 79 10" fill="none" xmlns="http://www.w3.org/2000/svg">
<path d="M2.36133 0.46875V9H0.896484V0.46875H2.36133ZM7.49414 0.46875L4.02539 5.33203H1.94531L1.74609 4.05469H3.21094L5.69531 0.46875H7.49414ZM5.99414 9L3.23438 5.10938L4.18359 3.97852L7.75781 9H5.99414ZM12.0352 7.72852V4.70508C12.0352 4.47852 11.9941 4.2832 11.9121 4.11914C11.8301 3.95508 11.7051 3.82812 11.5371 3.73828C11.373 3.64844 11.166 3.60352 10.916 3.60352C10.6855 3.60352 10.4863 3.64258 10.3184 3.7207C10.1504 3.79883 10.0195 3.9043 9.92578 4.03711C9.83203 4.16992 9.78516 4.32031 9.78516 4.48828H8.37891C8.37891 4.23828 8.43945 3.99609 8.56055 3.76172C8.68164 3.52734 8.85742 3.31836 9.08789 3.13477C9.31836 2.95117 9.59375 2.80664 9.91406 2.70117C10.2344 2.5957 10.5938 2.54297 10.9922 2.54297C11.4688 2.54297 11.8906 2.62305 12.2578 2.7832C12.6289 2.94336 12.9199 3.18555 13.1309 3.50977C13.3457 3.83008 13.4531 4.23242 13.4531 4.7168V7.53516C13.4531 7.82422 13.4727 8.08398 13.5117 8.31445C13.5547 8.54102 13.6152 8.73828 13.6934 8.90625V9H12.2461C12.1797 8.84766 12.127 8.6543 12.0879 8.41992C12.0527 8.18164 12.0352 7.95117 12.0352 7.72852ZM12.2402 5.14453L12.252 6.01758H11.2383C10.9766 6.01758 10.7461 6.04297 10.5469 6.09375C10.3477 6.14062 10.1816 6.21094 10.0488 6.30469C9.91602 6.39844 9.81641 6.51172 9.75 6.64453C9.68359 6.77734 9.65039 6.92773 9.65039 7.0957C9.65039 7.26367 9.68945 7.41797 9.76758 7.55859C9.8457 7.69531 9.95898 7.80273 10.1074 7.88086C10.2598 7.95898 10.4434 7.99805 10.6582 7.99805C10.9473 7.99805 11.1992 7.93945 11.4141 7.82227C11.6328 7.70117 11.8047 7.55469 11.9297 7.38281C12.0547 7.20703 12.1211 7.04102 12.1289 6.88477L12.5859 7.51172C12.5391 7.67188 12.459 7.84375 12.3457 8.02734C12.2324 8.21094 12.084 8.38672 11.9004 8.55469C11.7207 8.71875 11.5039 8.85352 11.25 8.95898C11 9.06445 10.7109 9.11719 10.3828 9.11719C9.96875 9.11719 9.59961 9.03516 9.27539 8.87109C8.95117 8.70312 8.69727 8.47852 8.51367 8.19727C8.33008 7.91211 8.23828 7.58984 8.23828 7.23047C8.23828 6.89453 8.30078 6.59766 8.42578 6.33984C8.55469 6.07812 8.74219 5.85938 8.98828 5.68359C9.23828 5.50781 9.54297 5.375 9.90234 5.28516C10.2617 5.19141 10.6719 5.14453 11.1328 5.14453H12.2402ZM16.4531 2.66016V9H15.041V2.66016H16.4531ZM20.5898 2.66016L17.7363 6.47461H16.125L15.9375 5.19727H17.1152L18.8262 2.66016H20.5898ZM18.9375 9L17.0273 6.23438L18.1406 5.43164L20.7949 9H18.9375ZM28.8809 5.30859V6.42188H25.5996V5.30859H28.8809ZM26.0098 2.66016V9H24.5977V2.66016H26.0098ZM29.9004 2.66016V9H28.4883V2.66016H29.9004ZM34.9805 7.72852V4.70508C34.9805 4.47852 34.9395 4.2832 34.8574 4.11914C34.7754 3.95508 34.6504 3.82812 34.4824 3.73828C34.3184 3.64844 34.1113 3.60352 33.8613 3.60352C33.6309 3.60352 33.4316 3.64258 33.2637 3.7207C33.0957 3.79883 32.9648 3.9043 32.8711 4.03711C32.7773 4.16992 32.7305 4.32031 32.7305 4.48828H31.3242C31.3242 4.23828 31.3848 3.99609 31.5059 3.76172C31.627 3.52734 31.8027 3.31836 32.0332 3.13477C32.2637 2.95117 32.5391 2.80664 32.8594 2.70117C33.1797 2.5957 33.5391 2.54297 33.9375 2.54297C34.4141 2.54297 34.8359 2.62305 35.2031 2.7832C35.5742 2.94336 35.8652 3.18555 36.0762 3.50977C36.291 3.83008 36.3984 4.23242 36.3984 4.7168V7.53516C36.3984 7.82422 36.418 8.08398 36.457 8.31445C36.5 8.54102 36.5605 8.73828 36.6387 8.90625V9H35.1914C35.125 8.84766 35.0723 8.6543 35.0332 8.41992C34.998 8.18164 34.9805 7.95117 34.9805 7.72852ZM35.1855 5.14453L35.1973 6.01758H34.1836C33.9219 6.01758 33.6914 6.04297 33.4922 6.09375C33.293 6.14062 33.127 6.21094 32.9941 6.30469C32.8613 6.39844 32.7617 6.51172 32.6953 6.64453C32.6289 6.77734 32.5957 6.92773 32.5957 7.0957C32.5957 7.26367 32.6348 7.41797 32.7129 7.55859C32.791 7.69531 32.9043 7.80273 33.0527 7.88086C33.2051 7.95898 33.3887 7.99805 33.6035 7.99805C33.8926 7.99805 34.1445 7.93945 34.3594 7.82227C34.5781 7.70117 34.75 7.55469 34.875 7.38281C35 7.20703 35.0664 7.04102 35.0742 6.88477L35.5312 7.51172C35.4844 7.67188 35.4043 7.84375 35.291 8.02734C35.1777 8.21094 35.0293 8.38672 34.8457 8.55469C34.666 8.71875 34.4492 8.85352 34.1953 8.95898C33.9453 9.06445 33.6562 9.11719 33.3281 9.11719C32.9141 9.11719 32.5449 9.03516 32.2207 8.87109C31.8965 8.70312 31.6426 8.47852 31.459 8.19727C31.2754 7.91211 31.1836 7.58984 31.1836 7.23047C31.1836 6.89453 31.2461 6.59766 31.3711 6.33984C31.5 6.07812 31.6875 5.85938 31.9336 5.68359C32.1836 5.50781 32.4883 5.375 32.8477 5.28516C33.207 5.19141 33.6172 5.14453 34.0781 5.14453H35.1855ZM40.4648 7.99219C40.6953 7.99219 40.9023 7.94727 41.0859 7.85742C41.2734 7.76367 41.4238 7.63477 41.5371 7.4707C41.6543 7.30664 41.7188 7.11719 41.7305 6.90234H43.0605C43.0527 7.3125 42.9316 7.68555 42.6973 8.02148C42.4629 8.35742 42.1523 8.625 41.7656 8.82422C41.3789 9.01953 40.9512 9.11719 40.4824 9.11719C39.998 9.11719 39.5762 9.03516 39.2168 8.87109C38.8574 8.70312 38.5586 8.47266 38.3203 8.17969C38.082 7.88672 37.9023 7.54883 37.7812 7.16602C37.6641 6.7832 37.6055 6.37305 37.6055 5.93555V5.73047C37.6055 5.29297 37.6641 4.88281 37.7812 4.5C37.9023 4.11328 38.082 3.77344 38.3203 3.48047C38.5586 3.1875 38.8574 2.95898 39.2168 2.79492C39.5762 2.62695 39.9961 2.54297 40.4766 2.54297C40.9844 2.54297 41.4297 2.64453 41.8125 2.84766C42.1953 3.04688 42.4961 3.32617 42.7148 3.68555C42.9375 4.04102 43.0527 4.45508 43.0605 4.92773H41.7305C41.7188 4.69336 41.6602 4.48242 41.5547 4.29492C41.4531 4.10352 41.3086 3.95117 41.1211 3.83789C40.9375 3.72461 40.7168 3.66797 40.459 3.66797C40.1738 3.66797 39.9375 3.72656 39.75 3.84375C39.5625 3.95703 39.416 4.11328 39.3105 4.3125C39.2051 4.50781 39.1289 4.72852 39.082 4.97461C39.0391 5.2168 39.0176 5.46875 39.0176 5.73047V5.93555C39.0176 6.19727 39.0391 6.45117 39.082 6.69727C39.125 6.94336 39.1992 7.16406 39.3047 7.35938C39.4141 7.55078 39.5625 7.70508 39.75 7.82227C39.9375 7.93555 40.1758 7.99219 40.4648 7.99219ZM51.4629 5.30859V6.42188H48.1816V5.30859H51.4629ZM48.5918 2.66016V9H47.1797V2.66016H48.5918ZM52.4824 2.66016V9H51.0703V2.66016H52.4824ZM57.5625 7.72852V4.70508C57.5625 4.47852 57.5215 4.2832 57.4395 4.11914C57.3574 3.95508 57.2324 3.82812 57.0645 3.73828C56.9004 3.64844 56.6934 3.60352 56.4434 3.60352C56.2129 3.60352 56.0137 3.64258 55.8457 3.7207C55.6777 3.79883 55.5469 3.9043 55.4531 4.03711C55.3594 4.16992 55.3125 4.32031 55.3125 4.48828H53.9062C53.9062 4.23828 53.9668 3.99609 54.0879 3.76172C54.209 3.52734 54.3848 3.31836 54.6152 3.13477C54.8457 2.95117 55.1211 2.80664 55.4414 2.70117C55.7617 2.5957 56.1211 2.54297 56.5195 2.54297C56.9961 2.54297 57.418 2.62305 57.7852 2.7832C58.1562 2.94336 58.4473 3.18555 58.6582 3.50977C58.873 3.83008 58.9805 4.23242 58.9805 4.7168V7.53516C58.9805 7.82422 59 8.08398 59.0391 8.31445C59.082 8.54102 59.1426 8.73828 59.2207 8.90625V9H57.7734C57.707 8.84766 57.6543 8.6543 57.6152 8.41992C57.5801 8.18164 57.5625 7.95117 57.5625 7.72852ZM57.7676 5.14453L57.7793 6.01758H56.7656C56.5039 6.01758 56.2734 6.04297 56.0742 6.09375C55.875 6.14062 55.709 6.21094 55.5762 6.30469C55.4434 6.39844 55.3438 6.51172 55.2773 6.64453C55.2109 6.77734 55.1777 6.92773 55.1777 7.0957C55.1777 7.26367 55.2168 7.41797 55.2949 7.55859C55.373 7.69531 55.4863 7.80273 55.6348 7.88086C55.7871 7.95898 55.9707 7.99805 56.1855 7.99805C56.4746 7.99805 56.7266 7.93945 56.9414 7.82227C57.1602 7.70117 57.332 7.55469 57.457 7.38281C57.582 7.20703 57.6484 7.04102 57.6562 6.88477L58.1133 7.51172C58.0664 7.67188 57.9863 7.84375 57.873 8.02734C57.7598 8.21094 57.6113 8.38672 57.4277 8.55469C57.248 8.71875 57.0312 8.85352 56.7773 8.95898C56.5273 9.06445 56.2383 9.11719 55.9102 9.11719C55.4961 9.11719 55.127 9.03516 54.8027 8.87109C54.4785 8.70312 54.2246 8.47852 54.041 8.19727C53.8574 7.91211 53.7656 7.58984 53.7656 7.23047C53.7656 6.89453 53.8281 6.59766 53.9531 6.33984C54.082 6.07812 54.2695 5.85938 54.5156 5.68359C54.7656 5.50781 55.0703 5.375 55.4297 5.28516C55.7891 5.19141 56.1992 5.14453 56.6602 5.14453H57.7676ZM61.916 6.9375L64.4062 2.66016H65.8184V9H64.4062V4.7168L61.916 9H60.5039V2.66016H61.916V6.9375ZM64.0312 0.222656H65.0801C65.0801 0.546875 65.002 0.833984 64.8457 1.08398C64.6934 1.33008 64.4746 1.52344 64.1895 1.66406C63.9082 1.80469 63.5723 1.875 63.1816 1.875C62.5918 1.875 62.125 1.72266 61.7812 1.41797C61.4414 1.10937 61.2715 0.710937 61.2715 0.222656H62.3203C62.3203 0.441406 62.3848 0.634766 62.5137 0.802734C62.6465 0.966797 62.8691 1.04883 63.1816 1.04883C63.4902 1.04883 63.709 0.966797 63.8379 0.802734C63.9668 0.634766 64.0312 0.441406 64.0312 0.222656ZM70.2539 2.66016V9H68.8359V2.66016H70.2539ZM72.334 2.66016V3.77344H66.791V2.66016H72.334ZM74.7363 6.9375L77.2266 2.66016H78.6387V9H77.2266V4.7168L74.7363 9H73.3242V2.66016H74.7363V6.9375Z" fill="white"/>
</svg>
