<svg width="51" height="11" viewBox="0 0 51 11" fill="none" xmlns="http://www.w3.org/2000/svg">
<path d="M2.36133 0.46875V9H0.896484V0.46875H2.36133ZM7.49414 0.46875L4.02539 5.33203H1.94531L1.74609 4.05469H3.21094L5.69531 0.46875H7.49414ZM5.99414 9L3.23438 5.10938L4.18359 3.97852L7.75781 9H5.99414ZM8.02734 5.90039V5.76562C8.02734 5.30859 8.09375 4.88477 8.22656 4.49414C8.35938 4.09961 8.55078 3.75781 8.80078 3.46875C9.05469 3.17578 9.36328 2.94922 9.72656 2.78906C10.0938 2.625 10.5078 2.54297 10.9688 2.54297C11.4336 2.54297 11.8477 2.625 12.2109 2.78906C12.5781 2.94922 12.8887 3.17578 13.1426 3.46875C13.3965 3.75781 13.5898 4.09961 13.7227 4.49414C13.8555 4.88477 13.9219 5.30859 13.9219 5.76562V5.90039C13.9219 6.35742 13.8555 6.78125 13.7227 7.17188C13.5898 7.5625 13.3965 7.9043 13.1426 8.19727C12.8887 8.48633 12.5801 8.71289 12.2168 8.87695C11.8535 9.03711 11.4414 9.11719 10.9805 9.11719C10.5156 9.11719 10.0996 9.03711 9.73242 8.87695C9.36914 8.71289 9.06055 8.48633 8.80664 8.19727C8.55273 7.9043 8.35938 7.5625 8.22656 7.17188C8.09375 6.78125 8.02734 6.35742 8.02734 5.90039ZM9.43945 5.76562V5.90039C9.43945 6.18555 9.46875 6.45508 9.52734 6.70898C9.58594 6.96289 9.67773 7.18555 9.80273 7.37695C9.92773 7.56836 10.0879 7.71875 10.2832 7.82812C10.4785 7.9375 10.7109 7.99219 10.9805 7.99219C11.2422 7.99219 11.4688 7.9375 11.6602 7.82812C11.8555 7.71875 12.0156 7.56836 12.1406 7.37695C12.2656 7.18555 12.3574 6.96289 12.416 6.70898C12.4785 6.45508 12.5098 6.18555 12.5098 5.90039V5.76562C12.5098 5.48438 12.4785 5.21875 12.416 4.96875C12.3574 4.71484 12.2637 4.49023 12.1348 4.29492C12.0098 4.09961 11.8496 3.94727 11.6543 3.83789C11.4629 3.72461 11.2344 3.66797 10.9688 3.66797C10.7031 3.66797 10.4727 3.72461 10.2773 3.83789C10.0859 3.94727 9.92773 4.09961 9.80273 4.29492C9.67773 4.49023 9.58594 4.71484 9.52734 4.96875C9.46875 5.21875 9.43945 5.48438 9.43945 5.76562ZM18.873 7.28906L20.7598 2.66016H21.9844L19.3535 9H18.3926L15.7676 2.66016H16.9922L18.873 7.28906ZM16.6289 2.66016V9H15.2168V2.66016H16.6289ZM21.1172 9V2.66016H22.5352V9H21.1172ZM27.6914 7.72852V4.70508C27.6914 4.47852 27.6504 4.2832 27.5684 4.11914C27.4863 3.95508 27.3613 3.82812 27.1934 3.73828C27.0293 3.64844 26.8223 3.60352 26.5723 3.60352C26.3418 3.60352 26.1426 3.64258 25.9746 3.7207C25.8066 3.79883 25.6758 3.9043 25.582 4.03711C25.4883 4.16992 25.4414 4.32031 25.4414 4.48828H24.0352C24.0352 4.23828 24.0957 3.99609 24.2168 3.76172C24.3379 3.52734 24.5137 3.31836 24.7441 3.13477C24.9746 2.95117 25.25 2.80664 25.5703 2.70117C25.8906 2.5957 26.25 2.54297 26.6484 2.54297C27.125 2.54297 27.5469 2.62305 27.9141 2.7832C28.2852 2.94336 28.5762 3.18555 28.7871 3.50977C29.002 3.83008 29.1094 4.23242 29.1094 4.7168V7.53516C29.1094 7.82422 29.1289 8.08398 29.168 8.31445C29.2109 8.54102 29.2715 8.73828 29.3496 8.90625V9H27.9023C27.8359 8.84766 27.7832 8.6543 27.7441 8.41992C27.709 8.18164 27.6914 7.95117 27.6914 7.72852ZM27.8965 5.14453L27.9082 6.01758H26.8945C26.6328 6.01758 26.4023 6.04297 26.2031 6.09375C26.0039 6.14062 25.8379 6.21094 25.7051 6.30469C25.5723 6.39844 25.4727 6.51172 25.4062 6.64453C25.3398 6.77734 25.3066 6.92773 25.3066 7.0957C25.3066 7.26367 25.3457 7.41797 25.4238 7.55859C25.502 7.69531 25.6152 7.80273 25.7637 7.88086C25.916 7.95898 26.0996 7.99805 26.3145 7.99805C26.6035 7.99805 26.8555 7.93945 27.0703 7.82227C27.2891 7.70117 27.4609 7.55469 27.5859 7.38281C27.7109 7.20703 27.7773 7.04102 27.7852 6.88477L28.2422 7.51172C28.1953 7.67188 28.1152 7.84375 28.002 8.02734C27.8887 8.21094 27.7402 8.38672 27.5566 8.55469C27.377 8.71875 27.1602 8.85352 26.9062 8.95898C26.6562 9.06445 26.3672 9.11719 26.0391 9.11719C25.625 9.11719 25.2559 9.03516 24.9316 8.87109C24.6074 8.70312 24.3535 8.47852 24.1699 8.19727C23.9863 7.91211 23.8945 7.58984 23.8945 7.23047C23.8945 6.89453 23.957 6.59766 24.082 6.33984C24.2109 6.07812 24.3984 5.85938 24.6445 5.68359C24.8945 5.50781 25.1992 5.375 25.5586 5.28516C25.918 5.19141 26.3281 5.14453 26.7891 5.14453H27.8965ZM34.916 5.30859V6.42188H31.6348V5.30859H34.916ZM32.0449 2.66016V9H30.6328V2.66016H32.0449ZM35.9355 2.66016V9H34.5234V2.66016H35.9355ZM38.5898 2.66016H40.002L39.9316 4.89258C39.9121 5.54102 39.8379 6.09766 39.709 6.5625C39.5801 7.02734 39.4121 7.41992 39.2051 7.74023C38.998 8.05664 38.7637 8.31641 38.502 8.51953C38.2441 8.72266 37.9727 8.88281 37.6875 9H37.2715V7.88672L37.4707 7.875C37.6387 7.69531 37.7832 7.51562 37.9043 7.33594C38.0293 7.15234 38.1348 6.95117 38.2207 6.73242C38.3066 6.50977 38.373 6.25 38.4199 5.95312C38.4707 5.65625 38.5039 5.30273 38.5195 4.89258L38.5898 2.66016ZM38.9648 2.66016H42.9844V9H41.5781V3.85547H38.9648V2.66016ZM36.9492 7.875H43.8516V10.8867H42.4395V9H38.3789V10.8867H36.9434L36.9492 7.875ZM48.4336 7.72852V4.70508C48.4336 4.47852 48.3926 4.2832 48.3105 4.11914C48.2285 3.95508 48.1035 3.82812 47.9355 3.73828C47.7715 3.64844 47.5645 3.60352 47.3145 3.60352C47.084 3.60352 46.8848 3.64258 46.7168 3.7207C46.5488 3.79883 46.418 3.9043 46.3242 4.03711C46.2305 4.16992 46.1836 4.32031 46.1836 4.48828H44.7773C44.7773 4.23828 44.8379 3.99609 44.959 3.76172C45.0801 3.52734 45.2559 3.31836 45.4863 3.13477C45.7168 2.95117 45.9922 2.80664 46.3125 2.70117C46.6328 2.5957 46.9922 2.54297 47.3906 2.54297C47.8672 2.54297 48.2891 2.62305 48.6562 2.7832C49.0273 2.94336 49.3184 3.18555 49.5293 3.50977C49.7441 3.83008 49.8516 4.23242 49.8516 4.7168V7.53516C49.8516 7.82422 49.8711 8.08398 49.9102 8.31445C49.9531 8.54102 50.0137 8.73828 50.0918 8.90625V9H48.6445C48.5781 8.84766 48.5254 8.6543 48.4863 8.41992C48.4512 8.18164 48.4336 7.95117 48.4336 7.72852ZM48.6387 5.14453L48.6504 6.01758H47.6367C47.375 6.01758 47.1445 6.04297 46.9453 6.09375C46.7461 6.14062 46.5801 6.21094 46.4473 6.30469C46.3145 6.39844 46.2148 6.51172 46.1484 6.64453C46.082 6.77734 46.0488 6.92773 46.0488 7.0957C46.0488 7.26367 46.0879 7.41797 46.166 7.55859C46.2441 7.69531 46.3574 7.80273 46.5059 7.88086C46.6582 7.95898 46.8418 7.99805 47.0566 7.99805C47.3457 7.99805 47.5977 7.93945 47.8125 7.82227C48.0312 7.70117 48.2031 7.55469 48.3281 7.38281C48.4531 7.20703 48.5195 7.04102 48.5273 6.88477L48.9844 7.51172C48.9375 7.67188 48.8574 7.84375 48.7441 8.02734C48.6309 8.21094 48.4824 8.38672 48.2988 8.55469C48.1191 8.71875 47.9023 8.85352 47.6484 8.95898C47.3984 9.06445 47.1094 9.11719 46.7812 9.11719C46.3672 9.11719 45.998 9.03516 45.6738 8.87109C45.3496 8.70312 45.0957 8.47852 44.9121 8.19727C44.7285 7.91211 44.6367 7.58984 44.6367 7.23047C44.6367 6.89453 44.6992 6.59766 44.8242 6.33984C44.9531 6.07812 45.1406 5.85938 45.3867 5.68359C45.6367 5.50781 45.9414 5.375 46.3008 5.28516C46.6602 5.19141 47.0703 5.14453 47.5312 5.14453H48.6387Z" fill="white"/>
</svg>
