<svg width="119" height="12" viewBox="0 0 119 12" fill="none" xmlns="http://www.w3.org/2000/svg">
<path d="M6.50391 4.03125V5.19727H1.97461V4.03125H6.50391ZM2.33789 0.46875V9H0.867188V0.46875H2.33789ZM7.63477 0.46875V9H6.16992V0.46875H7.63477ZM12.8203 7.72852V4.70508C12.8203 4.47852 12.7793 4.2832 12.6973 4.11914C12.6152 3.95508 12.4902 3.82812 12.3223 3.73828C12.1582 3.64844 11.9512 3.60352 11.7012 3.60352C11.4707 3.60352 11.2715 3.64258 11.1035 3.7207C10.9355 3.79883 10.8047 3.9043 10.7109 4.03711C10.6172 4.16992 10.5703 4.32031 10.5703 4.48828H9.16406C9.16406 4.23828 9.22461 3.99609 9.3457 3.76172C9.4668 3.52734 9.64258 3.31836 9.87305 3.13477C10.1035 2.95117 10.3789 2.80664 10.6992 2.70117C11.0195 2.5957 11.3789 2.54297 11.7773 2.54297C12.2539 2.54297 12.6758 2.62305 13.043 2.7832C13.4141 2.94336 13.7051 3.18555 13.916 3.50977C14.1309 3.83008 14.2383 4.23242 14.2383 4.7168V7.53516C14.2383 7.82422 14.2578 8.08398 14.2969 8.31445C14.3398 8.54102 14.4004 8.73828 14.4785 8.90625V9H13.0312C12.9648 8.84766 12.9121 8.6543 12.873 8.41992C12.8379 8.18164 12.8203 7.95117 12.8203 7.72852ZM13.0254 5.14453L13.0371 6.01758H12.0234C11.7617 6.01758 11.5312 6.04297 11.332 6.09375C11.1328 6.14062 10.9668 6.21094 10.834 6.30469C10.7012 6.39844 10.6016 6.51172 10.5352 6.64453C10.4688 6.77734 10.4355 6.92773 10.4355 7.0957C10.4355 7.26367 10.4746 7.41797 10.5527 7.55859C10.6309 7.69531 10.7441 7.80273 10.8926 7.88086C11.0449 7.95898 11.2285 7.99805 11.4434 7.99805C11.7324 7.99805 11.9844 7.93945 12.1992 7.82227C12.418 7.70117 12.5898 7.55469 12.7148 7.38281C12.8398 7.20703 12.9062 7.04102 12.9141 6.88477L13.3711 7.51172C13.3242 7.67188 13.2441 7.84375 13.1309 8.02734C13.0176 8.21094 12.8691 8.38672 12.6855 8.55469C12.5059 8.71875 12.2891 8.85352 12.0352 8.95898C11.7852 9.06445 11.4961 9.11719 11.168 9.11719C10.7539 9.11719 10.3848 9.03516 10.0605 8.87109C9.73633 8.70312 9.48242 8.47852 9.29883 8.19727C9.11523 7.91211 9.02344 7.58984 9.02344 7.23047C9.02344 6.89453 9.08594 6.59766 9.21094 6.33984C9.33984 6.07812 9.52734 5.85938 9.77344 5.68359C10.0234 5.50781 10.3281 5.375 10.6875 5.28516C11.0469 5.19141 11.457 5.14453 11.918 5.14453H13.0254ZM15.7617 2.66016H17.1738V7.875H19.1836V2.66016H20.6074V7.875H22.6113V2.66016H24.0234V9H15.7617V2.66016ZM27.0059 6.9375L29.4961 2.66016H30.9082V9H29.4961V4.7168L27.0059 9H25.5938V2.66016H27.0059V6.9375ZM39.6445 2.66016V3.78516H36.5156V2.66016H39.6445ZM36.8496 2.66016V9H35.4375V2.66016H36.8496ZM40.752 2.66016V9H39.334V2.66016H40.752ZM43.6641 3.87891V11.4375H42.252V2.66016H43.5527L43.6641 3.87891ZM47.7949 5.77148V5.89453C47.7949 6.35547 47.7402 6.7832 47.6309 7.17773C47.5254 7.56836 47.3672 7.91016 47.1562 8.20312C46.9492 8.49219 46.6934 8.7168 46.3887 8.87695C46.084 9.03711 45.7324 9.11719 45.334 9.11719C44.9395 9.11719 44.5938 9.04492 44.2969 8.90039C44.0039 8.75195 43.7559 8.54297 43.5527 8.27344C43.3496 8.00391 43.1855 7.6875 43.0605 7.32422C42.9395 6.95703 42.8535 6.55469 42.8027 6.11719V5.64258C42.8535 5.17773 42.9395 4.75586 43.0605 4.37695C43.1855 3.99805 43.3496 3.67188 43.5527 3.39844C43.7559 3.125 44.0039 2.91406 44.2969 2.76562C44.5898 2.61719 44.9316 2.54297 45.3223 2.54297C45.7207 2.54297 46.0742 2.62109 46.3828 2.77734C46.6914 2.92969 46.9512 3.14844 47.1621 3.43359C47.373 3.71484 47.5312 4.05469 47.6367 4.45312C47.7422 4.84766 47.7949 5.28711 47.7949 5.77148ZM46.3828 5.89453V5.77148C46.3828 5.47852 46.3555 5.20703 46.3008 4.95703C46.2461 4.70312 46.1602 4.48047 46.043 4.28906C45.9258 4.09766 45.7754 3.94922 45.5918 3.84375C45.4121 3.73438 45.1953 3.67969 44.9414 3.67969C44.6914 3.67969 44.4766 3.72266 44.2969 3.80859C44.1172 3.89062 43.9668 4.00586 43.8457 4.1543C43.7246 4.30273 43.6309 4.47656 43.5645 4.67578C43.498 4.87109 43.4512 5.08398 43.4238 5.31445V6.45117C43.4707 6.73242 43.5508 6.99023 43.6641 7.22461C43.7773 7.45898 43.9375 7.64648 44.1445 7.78711C44.3555 7.92383 44.625 7.99219 44.9531 7.99219C45.207 7.99219 45.4238 7.9375 45.6035 7.82812C45.7832 7.71875 45.9297 7.56836 46.043 7.37695C46.1602 7.18164 46.2461 6.95703 46.3008 6.70312C46.3555 6.44922 46.3828 6.17969 46.3828 5.89453ZM51.791 9.11719C51.3223 9.11719 50.8984 9.04102 50.5195 8.88867C50.1445 8.73242 49.8242 8.51562 49.5586 8.23828C49.2969 7.96094 49.0957 7.63477 48.9551 7.25977C48.8145 6.88477 48.7441 6.48047 48.7441 6.04688V5.8125C48.7441 5.31641 48.8164 4.86719 48.9609 4.46484C49.1055 4.0625 49.3066 3.71875 49.5645 3.43359C49.8223 3.14453 50.127 2.92383 50.4785 2.77148C50.8301 2.61914 51.2109 2.54297 51.6211 2.54297C52.0742 2.54297 52.4707 2.61914 52.8105 2.77148C53.1504 2.92383 53.4316 3.13867 53.6543 3.41602C53.8809 3.68945 54.0488 4.01562 54.1582 4.39453C54.2715 4.77344 54.3281 5.19141 54.3281 5.64844V6.25195H49.4297V5.23828H52.9336V5.12695C52.9258 4.87305 52.875 4.63477 52.7812 4.41211C52.6914 4.18945 52.5527 4.00977 52.3652 3.87305C52.1777 3.73633 51.9277 3.66797 51.6152 3.66797C51.3809 3.66797 51.1719 3.71875 50.9883 3.82031C50.8086 3.91797 50.6582 4.06055 50.5371 4.24805C50.416 4.43555 50.3223 4.66211 50.2559 4.92773C50.1934 5.18945 50.1621 5.48438 50.1621 5.8125V6.04688C50.1621 6.32422 50.1992 6.58203 50.2734 6.82031C50.3516 7.05469 50.4648 7.25977 50.6133 7.43555C50.7617 7.61133 50.9414 7.75 51.1523 7.85156C51.3633 7.94922 51.6035 7.99805 51.873 7.99805C52.2129 7.99805 52.5156 7.92969 52.7812 7.79297C53.0469 7.65625 53.2773 7.46289 53.4727 7.21289L54.2168 7.93359C54.0801 8.13281 53.9023 8.32422 53.6836 8.50781C53.4648 8.6875 53.1973 8.83398 52.8809 8.94727C52.5684 9.06055 52.2051 9.11719 51.791 9.11719ZM56.8887 6.9375L59.3789 2.66016H60.791V9H59.3789V4.7168L56.8887 9H55.4766V2.66016H56.8887V6.9375ZM66.0527 7.28906L67.9395 2.66016H69.1641L66.5332 9H65.5723L62.9473 2.66016H64.1719L66.0527 7.28906ZM63.8086 2.66016V9H62.3965V2.66016H63.8086ZM68.2969 9V2.66016H69.7148V9H68.2969ZM73.1367 8.30859L74.8594 2.66016H76.3711L73.8281 9.9668C73.7695 10.123 73.6934 10.293 73.5996 10.4766C73.5059 10.6602 73.3828 10.834 73.2305 10.998C73.082 11.166 72.8965 11.3008 72.6738 11.4023C72.4512 11.5078 72.1816 11.5605 71.8652 11.5605C71.7402 11.5605 71.6191 11.5488 71.502 11.5254C71.3887 11.5059 71.2812 11.4844 71.1797 11.4609L71.1738 10.3828C71.2129 10.3867 71.2598 10.3906 71.3145 10.3945C71.373 10.3984 71.4199 10.4004 71.4551 10.4004C71.6895 10.4004 71.8848 10.3711 72.041 10.3125C72.1973 10.2578 72.3242 10.168 72.4219 10.043C72.5234 9.91797 72.6094 9.75 72.6797 9.53906L73.1367 8.30859ZM72.1641 2.66016L73.6699 7.40625L73.9219 8.89453L72.9434 9.14648L70.6406 2.66016H72.1641ZM86.5488 7.88086L86.4375 10.8809H85.1426V9H84.3809V7.88086H86.5488ZM77.1855 2.66016H78.5977V7.875H80.6133V2.66016H82.0312V7.875H84.041V2.66016H85.4531V9H77.1855V2.66016ZM90.3926 9.11719C89.9238 9.11719 89.5 9.04102 89.1211 8.88867C88.7461 8.73242 88.4258 8.51562 88.1602 8.23828C87.8984 7.96094 87.6973 7.63477 87.5566 7.25977C87.416 6.88477 87.3457 6.48047 87.3457 6.04688V5.8125C87.3457 5.31641 87.418 4.86719 87.5625 4.46484C87.707 4.0625 87.9082 3.71875 88.166 3.43359C88.4238 3.14453 88.7285 2.92383 89.0801 2.77148C89.4316 2.61914 89.8125 2.54297 90.2227 2.54297C90.6758 2.54297 91.0723 2.61914 91.4121 2.77148C91.752 2.92383 92.0332 3.13867 92.2559 3.41602C92.4824 3.68945 92.6504 4.01562 92.7598 4.39453C92.873 4.77344 92.9297 5.19141 92.9297 5.64844V6.25195H88.0312V5.23828H91.5352V5.12695C91.5273 4.87305 91.4766 4.63477 91.3828 4.41211C91.293 4.18945 91.1543 4.00977 90.9668 3.87305C90.7793 3.73633 90.5293 3.66797 90.2168 3.66797C89.9824 3.66797 89.7734 3.71875 89.5898 3.82031C89.4102 3.91797 89.2598 4.06055 89.1387 4.24805C89.0176 4.43555 88.9238 4.66211 88.8574 4.92773C88.7949 5.18945 88.7637 5.48438 88.7637 5.8125V6.04688C88.7637 6.32422 88.8008 6.58203 88.875 6.82031C88.9531 7.05469 89.0664 7.25977 89.2148 7.43555C89.3633 7.61133 89.543 7.75 89.7539 7.85156C89.9648 7.94922 90.2051 7.99805 90.4746 7.99805C90.8145 7.99805 91.1172 7.92969 91.3828 7.79297C91.6484 7.65625 91.8789 7.46289 92.0742 7.21289L92.8184 7.93359C92.6816 8.13281 92.5039 8.32422 92.2852 8.50781C92.0664 8.6875 91.7988 8.83398 91.4824 8.94727C91.1699 9.06055 90.8066 9.11719 90.3926 9.11719ZM96.6211 7.99219C96.8516 7.99219 97.0586 7.94727 97.2422 7.85742C97.4297 7.76367 97.5801 7.63477 97.6934 7.4707C97.8105 7.30664 97.875 7.11719 97.8867 6.90234H99.2168C99.209 7.3125 99.0879 7.68555 98.8535 8.02148C98.6191 8.35742 98.3086 8.625 97.9219 8.82422C97.5352 9.01953 97.1074 9.11719 96.6387 9.11719C96.1543 9.11719 95.7324 9.03516 95.373 8.87109C95.0137 8.70312 94.7148 8.47266 94.4766 8.17969C94.2383 7.88672 94.0586 7.54883 93.9375 7.16602C93.8203 6.7832 93.7617 6.37305 93.7617 5.93555V5.73047C93.7617 5.29297 93.8203 4.88281 93.9375 4.5C94.0586 4.11328 94.2383 3.77344 94.4766 3.48047C94.7148 3.1875 95.0137 2.95898 95.373 2.79492C95.7324 2.62695 96.1523 2.54297 96.6328 2.54297C97.1406 2.54297 97.5859 2.64453 97.9688 2.84766C98.3516 3.04688 98.6523 3.32617 98.8711 3.68555C99.0938 4.04102 99.209 4.45508 99.2168 4.92773H97.8867C97.875 4.69336 97.8164 4.48242 97.7109 4.29492C97.6094 4.10352 97.4648 3.95117 97.2773 3.83789C97.0938 3.72461 96.873 3.66797 96.6152 3.66797C96.3301 3.66797 96.0938 3.72656 95.9062 3.84375C95.7188 3.95703 95.5723 4.11328 95.4668 4.3125C95.3613 4.50781 95.2852 4.72852 95.2383 4.97461C95.1953 5.2168 95.1738 5.46875 95.1738 5.73047V5.93555C95.1738 6.19727 95.1953 6.45117 95.2383 6.69727C95.2812 6.94336 95.3555 7.16406 95.4609 7.35938C95.5703 7.55078 95.7188 7.70508 95.9062 7.82227C96.0938 7.93555 96.332 7.99219 96.6211 7.99219ZM103.242 2.66016V9H101.824V2.66016H103.242ZM105.322 2.66016V3.77344H99.7793V2.66016H105.322ZM109.348 6.28711H107.32L107.309 5.29102H108.973C109.246 5.29102 109.471 5.26367 109.646 5.20898C109.826 5.1543 109.959 5.07227 110.045 4.96289C110.131 4.84961 110.174 4.71289 110.174 4.55273C110.174 4.41992 110.148 4.30469 110.098 4.20703C110.047 4.10547 109.969 4.02344 109.863 3.96094C109.762 3.89453 109.633 3.84766 109.477 3.82031C109.324 3.78906 109.146 3.77344 108.943 3.77344H107.789V9H106.377V2.66016H108.943C109.35 2.66016 109.715 2.69531 110.039 2.76562C110.367 2.83594 110.646 2.94336 110.877 3.08789C111.107 3.23242 111.283 3.41602 111.404 3.63867C111.529 3.85742 111.592 4.11523 111.592 4.41211C111.592 4.60742 111.549 4.79102 111.463 4.96289C111.381 5.13477 111.258 5.28711 111.094 5.41992C110.93 5.55273 110.729 5.66211 110.49 5.74805C110.252 5.83008 109.979 5.88086 109.67 5.90039L109.348 6.28711ZM109.348 9H106.91L107.473 7.88672H109.348C109.598 7.88672 109.805 7.85547 109.969 7.79297C110.133 7.73047 110.254 7.64062 110.332 7.52344C110.414 7.40234 110.455 7.25977 110.455 7.0957C110.455 6.92773 110.416 6.7832 110.338 6.66211C110.26 6.54102 110.139 6.44922 109.975 6.38672C109.814 6.32031 109.605 6.28711 109.348 6.28711H107.736L107.748 5.29102H109.664L110.068 5.67773C110.471 5.70508 110.805 5.79102 111.07 5.93555C111.336 6.08008 111.535 6.26172 111.668 6.48047C111.801 6.69922 111.867 6.9375 111.867 7.19531C111.867 7.49219 111.811 7.75391 111.697 7.98047C111.588 8.20703 111.424 8.39648 111.205 8.54883C110.99 8.69727 110.727 8.81055 110.414 8.88867C110.102 8.96289 109.746 9 109.348 9ZM116.66 7.72852V4.70508C116.66 4.47852 116.619 4.2832 116.537 4.11914C116.455 3.95508 116.33 3.82812 116.162 3.73828C115.998 3.64844 115.791 3.60352 115.541 3.60352C115.311 3.60352 115.111 3.64258 114.943 3.7207C114.775 3.79883 114.645 3.9043 114.551 4.03711C114.457 4.16992 114.41 4.32031 114.41 4.48828H113.004C113.004 4.23828 113.064 3.99609 113.186 3.76172C113.307 3.52734 113.482 3.31836 113.713 3.13477C113.943 2.95117 114.219 2.80664 114.539 2.70117C114.859 2.5957 115.219 2.54297 115.617 2.54297C116.094 2.54297 116.516 2.62305 116.883 2.7832C117.254 2.94336 117.545 3.18555 117.756 3.50977C117.971 3.83008 118.078 4.23242 118.078 4.7168V7.53516C118.078 7.82422 118.098 8.08398 118.137 8.31445C118.18 8.54102 118.24 8.73828 118.318 8.90625V9H116.871C116.805 8.84766 116.752 8.6543 116.713 8.41992C116.678 8.18164 116.66 7.95117 116.66 7.72852ZM116.865 5.14453L116.877 6.01758H115.863C115.602 6.01758 115.371 6.04297 115.172 6.09375C114.973 6.14062 114.807 6.21094 114.674 6.30469C114.541 6.39844 114.441 6.51172 114.375 6.64453C114.309 6.77734 114.275 6.92773 114.275 7.0957C114.275 7.26367 114.314 7.41797 114.393 7.55859C114.471 7.69531 114.584 7.80273 114.732 7.88086C114.885 7.95898 115.068 7.99805 115.283 7.99805C115.572 7.99805 115.824 7.93945 116.039 7.82227C116.258 7.70117 116.43 7.55469 116.555 7.38281C116.68 7.20703 116.746 7.04102 116.754 6.88477L117.211 7.51172C117.164 7.67188 117.084 7.84375 116.971 8.02734C116.857 8.21094 116.709 8.38672 116.525 8.55469C116.346 8.71875 116.129 8.85352 115.875 8.95898C115.625 9.06445 115.336 9.11719 115.008 9.11719C114.594 9.11719 114.225 9.03516 113.9 8.87109C113.576 8.70312 113.322 8.47852 113.139 8.19727C112.955 7.91211 112.863 7.58984 112.863 7.23047C112.863 6.89453 112.926 6.59766 113.051 6.33984C113.18 6.07812 113.367 5.85938 113.613 5.68359C113.863 5.50781 114.168 5.375 114.527 5.28516C114.887 5.19141 115.297 5.14453 115.758 5.14453H116.865Z" fill="white"/>
</svg>
