<svg width="83" height="20" viewBox="0 0 83 20" fill="none" xmlns="http://www.w3.org/2000/svg">
<path d="M12.8887 7.5293V8.26172C12.8887 9.33594 12.7454 10.3027 12.459 11.1621C12.1725 12.015 11.7656 12.7409 11.2383 13.3398C10.7109 13.9388 10.0827 14.3978 9.35352 14.7168C8.62435 15.0358 7.8138 15.1953 6.92188 15.1953C6.04297 15.1953 5.23568 15.0358 4.5 14.7168C3.77083 14.3978 3.13932 13.9388 2.60547 13.3398C2.07161 12.7409 1.6582 12.015 1.36523 11.1621C1.07227 10.3027 0.925781 9.33594 0.925781 8.26172V7.5293C0.925781 6.44857 1.07227 5.48177 1.36523 4.62891C1.6582 3.77604 2.06836 3.05013 2.5957 2.45117C3.12305 1.8457 3.7513 1.38346 4.48047 1.06445C5.21615 0.745443 6.02344 0.585938 6.90234 0.585938C7.79427 0.585938 8.60482 0.745443 9.33398 1.06445C10.0632 1.38346 10.6914 1.8457 11.2188 2.45117C11.7526 3.05013 12.1628 3.77604 12.4492 4.62891C12.7422 5.48177 12.8887 6.44857 12.8887 7.5293ZM10.1738 8.26172V7.50977C10.1738 6.73503 10.1022 6.05469 9.95898 5.46875C9.81576 4.8763 9.60417 4.37826 9.32422 3.97461C9.04427 3.57096 8.69922 3.26823 8.28906 3.06641C7.87891 2.85807 7.41667 2.75391 6.90234 2.75391C6.38151 2.75391 5.91927 2.85807 5.51562 3.06641C5.11849 3.26823 4.77995 3.57096 4.5 3.97461C4.22005 4.37826 4.00521 4.8763 3.85547 5.46875C3.71224 6.05469 3.64062 6.73503 3.64062 7.50977V8.26172C3.64062 9.02995 3.71224 9.71029 3.85547 10.3027C4.00521 10.8952 4.22005 11.3965 4.5 11.8066C4.78646 12.2103 5.13151 12.5163 5.53516 12.7246C5.9388 12.9329 6.40104 13.0371 6.92188 13.0371C7.44271 13.0371 7.90495 12.9329 8.30859 12.7246C8.71224 12.5163 9.05078 12.2103 9.32422 11.8066C9.60417 11.3965 9.81576 10.8952 9.95898 10.3027C10.1022 9.71029 10.1738 9.02995 10.1738 8.26172ZM24.2852 13.1641C24.6497 13.1641 24.9753 13.0924 25.2617 12.9492C25.5482 12.806 25.776 12.6042 25.9453 12.3438C26.1211 12.0833 26.2155 11.7806 26.2285 11.4355H28.6602C28.6471 12.1517 28.4453 12.793 28.0547 13.3594C27.6641 13.9258 27.1432 14.375 26.4922 14.707C25.8477 15.0326 25.125 15.1953 24.3242 15.1953C23.5104 15.1953 22.8008 15.0586 22.1953 14.7852C21.5898 14.5117 21.0853 14.1309 20.6816 13.6426C20.2845 13.1543 19.985 12.5879 19.7832 11.9434C19.5879 11.2988 19.4902 10.6087 19.4902 9.87305V9.56055C19.4902 8.82487 19.5879 8.13477 19.7832 7.49023C19.985 6.8457 20.2845 6.2793 20.6816 5.79102C21.0853 5.30273 21.5898 4.92188 22.1953 4.64844C22.8008 4.375 23.5072 4.23828 24.3145 4.23828C25.1673 4.23828 25.916 4.4043 26.5605 4.73633C27.2116 5.06836 27.7194 5.53711 28.084 6.14258C28.4551 6.74805 28.6471 7.46094 28.6602 8.28125H26.2285C26.2155 7.90365 26.1309 7.5651 25.9746 7.26562C25.8184 6.96615 25.597 6.72526 25.3105 6.54297C25.0241 6.36068 24.6758 6.26953 24.2656 6.26953C23.8294 6.26953 23.4648 6.36068 23.1719 6.54297C22.8854 6.72526 22.6608 6.97591 22.498 7.29492C22.3418 7.60742 22.2311 7.95898 22.166 8.34961C22.1074 8.73372 22.0781 9.13737 22.0781 9.56055V9.87305C22.0781 10.3027 22.1074 10.7129 22.166 11.1035C22.2311 11.4941 22.3418 11.8457 22.498 12.1582C22.6608 12.4642 22.8854 12.7083 23.1719 12.8906C23.4648 13.0729 23.8359 13.1641 24.2852 13.1641ZM35.5059 4.43359V15H32.918V4.43359H35.5059ZM38.9434 4.43359V6.44531H29.5391V4.43359H38.9434ZM43.6699 13.8281L46.502 4.43359H49.2656L45.0273 16.6016C44.9297 16.862 44.8027 17.1452 44.6465 17.4512C44.4967 17.7572 44.2949 18.0469 44.041 18.3203C43.7871 18.6003 43.4681 18.8281 43.084 19.0039C42.7064 19.1797 42.2474 19.2676 41.707 19.2676C41.4727 19.2676 41.2643 19.2513 41.082 19.2188C40.8997 19.1862 40.7077 19.1439 40.5059 19.0918V17.1582C40.571 17.1647 40.6458 17.168 40.7305 17.168C40.8216 17.1745 40.8997 17.1777 40.9648 17.1777C41.3424 17.1777 41.6549 17.1322 41.9023 17.041C42.1497 16.9564 42.3483 16.8164 42.498 16.6211C42.6543 16.4323 42.7845 16.1849 42.8887 15.8789L43.6699 13.8281ZM42.2734 4.43359L44.666 12.2168L45.0859 14.9414L43.3086 15.2637L39.4902 4.43359H42.2734ZM51.873 4.43359H54.4512L54.3535 8.06641C54.321 9.16667 54.1908 10.1172 53.9629 10.918C53.7415 11.7122 53.4453 12.3796 53.0742 12.9199C52.7096 13.4603 52.293 13.8965 51.8242 14.2285C51.362 14.5605 50.877 14.8177 50.3691 15H49.7539L49.7441 12.9883L50.0469 12.9688C50.3529 12.6432 50.61 12.3242 50.8184 12.0117C51.0332 11.6927 51.2057 11.3509 51.3359 10.9863C51.4661 10.6217 51.5638 10.2051 51.6289 9.73633C51.7005 9.26107 51.7461 8.70443 51.7656 8.06641L51.873 4.43359ZM52.5664 4.43359H59.4121V15H56.834V6.55273H52.5664V4.43359ZM49.168 12.9688H60.8867V18.1641H58.3086V15H51.7949V18.1641H49.1582L49.168 12.9688ZM64.9785 11.3184L68.8262 4.43359H71.4141V15H68.8262V8.10547L64.9785 15H62.3906V4.43359H64.9785V11.3184ZM76.3652 11.3184L80.2129 4.43359H82.8008V15H80.2129V8.10547L76.3652 15H73.7773V4.43359H76.3652V11.3184Z" fill="white"/>
</svg>
