<svg width="90" height="13" viewBox="0 0 90 13" fill="none" xmlns="http://www.w3.org/2000/svg">
<path d="M7.66992 5.5V5.96875C7.66992 6.61328 7.58594 7.19141 7.41797 7.70312C7.25 8.21484 7.00977 8.65039 6.69727 9.00977C6.38867 9.36914 6.01758 9.64453 5.58398 9.83594C5.15039 10.0234 4.66992 10.1172 4.14258 10.1172C3.61914 10.1172 3.14062 10.0234 2.70703 9.83594C2.27734 9.64453 1.9043 9.36914 1.58789 9.00977C1.27148 8.65039 1.02539 8.21484 0.849609 7.70312C0.677734 7.19141 0.591797 6.61328 0.591797 5.96875V5.5C0.591797 4.85547 0.677734 4.2793 0.849609 3.77148C1.02148 3.25977 1.26367 2.82422 1.57617 2.46484C1.89258 2.10156 2.26562 1.82617 2.69531 1.63867C3.12891 1.44727 3.60742 1.35156 4.13086 1.35156C4.6582 1.35156 5.13867 1.44727 5.57227 1.63867C6.00586 1.82617 6.37891 2.10156 6.69141 2.46484C7.00391 2.82422 7.24414 3.25977 7.41211 3.77148C7.58398 4.2793 7.66992 4.85547 7.66992 5.5ZM6.19922 5.96875V5.48828C6.19922 5.01172 6.15234 4.5918 6.05859 4.22852C5.96875 3.86133 5.83398 3.55469 5.6543 3.30859C5.47852 3.05859 5.26172 2.87109 5.00391 2.74609C4.74609 2.61719 4.45508 2.55273 4.13086 2.55273C3.80664 2.55273 3.51758 2.61719 3.26367 2.74609C3.00977 2.87109 2.79297 3.05859 2.61328 3.30859C2.4375 3.55469 2.30273 3.86133 2.20898 4.22852C2.11523 4.5918 2.06836 5.01172 2.06836 5.48828V5.96875C2.06836 6.44531 2.11523 6.86719 2.20898 7.23438C2.30273 7.60156 2.43945 7.91211 2.61914 8.16602C2.80273 8.41602 3.02148 8.60547 3.27539 8.73438C3.5293 8.85938 3.81836 8.92188 4.14258 8.92188C4.4707 8.92188 4.76172 8.85938 5.01562 8.73438C5.26953 8.60547 5.48438 8.41602 5.66016 8.16602C5.83594 7.91211 5.96875 7.60156 6.05859 7.23438C6.15234 6.86719 6.19922 6.44531 6.19922 5.96875ZM12.9785 0.882812H14.1211C14.1211 1.23047 14.0723 1.51758 13.9746 1.74414C13.8809 1.9668 13.7402 2.15039 13.5527 2.29492C13.3691 2.43555 13.1406 2.54883 12.8672 2.63477C12.5977 2.7207 12.2852 2.79883 11.9297 2.86914C11.6016 2.93945 11.3047 3.05078 11.0391 3.20312C10.7773 3.35156 10.5566 3.56055 10.377 3.83008C10.2012 4.0957 10.0742 4.4375 9.99609 4.85547C9.91797 5.27344 9.89453 5.7832 9.92578 6.38477V6.7832L8.80664 6.88281V6.48438C8.80664 5.73828 8.875 5.08789 9.01172 4.5332C9.14844 3.97852 9.3418 3.51172 9.5918 3.13281C9.8457 2.75 10.1465 2.44531 10.4941 2.21875C10.8457 1.99219 11.2363 1.83594 11.666 1.75C11.959 1.6875 12.2031 1.625 12.3984 1.5625C12.5938 1.49609 12.7383 1.41211 12.832 1.31055C12.9297 1.20508 12.9785 1.0625 12.9785 0.882812ZM11.9883 4.01758C12.4102 4.01758 12.7852 4.0918 13.1133 4.24023C13.4414 4.38477 13.7188 4.58789 13.9453 4.84961C14.1719 5.11133 14.3438 5.41992 14.4609 5.77539C14.582 6.13086 14.6426 6.51758 14.6426 6.93555V7.06445C14.6426 7.50195 14.5781 7.90625 14.4492 8.27734C14.3203 8.64844 14.1309 8.97266 13.8809 9.25C13.6309 9.52344 13.3242 9.73828 12.9609 9.89453C12.6016 10.0469 12.1895 10.123 11.7246 10.123C11.2637 10.123 10.8516 10.043 10.4883 9.88281C10.125 9.72266 9.81836 9.5 9.56836 9.21484C9.31836 8.92578 9.12891 8.58789 9 8.20117C8.87109 7.81445 8.80664 7.39258 8.80664 6.93555V6.80664C8.80273 6.72461 8.82422 6.64453 8.87109 6.56641C8.92188 6.48828 8.98242 6.4043 9.05273 6.31445C9.12305 6.22461 9.18555 6.12109 9.24023 6.00391C9.43555 5.60938 9.66602 5.26367 9.93164 4.9668C10.1973 4.66992 10.5 4.4375 10.8398 4.26953C11.1836 4.10156 11.5664 4.01758 11.9883 4.01758ZM11.7129 5.13672C11.3613 5.13672 11.0742 5.2207 10.8516 5.38867C10.6328 5.55273 10.4707 5.77148 10.3652 6.04492C10.2637 6.31836 10.2129 6.61523 10.2129 6.93555V7.06445C10.2129 7.32617 10.2422 7.57422 10.3008 7.80859C10.3594 8.04297 10.4473 8.25 10.5645 8.42969C10.6855 8.60547 10.8418 8.74414 11.0332 8.8457C11.2285 8.94727 11.459 8.99805 11.7246 8.99805C11.9941 8.99805 12.2227 8.94727 12.4102 8.8457C12.6016 8.74414 12.7559 8.60547 12.873 8.42969C12.9941 8.25 13.082 8.04297 13.1367 7.80859C13.1953 7.57422 13.2246 7.32617 13.2246 7.06445V6.93555C13.2246 6.69336 13.1953 6.46484 13.1367 6.25C13.082 6.03516 12.9941 5.8457 12.873 5.68164C12.752 5.51367 12.5957 5.38086 12.4043 5.2832C12.2129 5.18555 11.9824 5.13672 11.7129 5.13672ZM17.0625 4.87891V12.4375H15.6504V3.66016H16.9512L17.0625 4.87891ZM21.1934 6.77148V6.89453C21.1934 7.35547 21.1387 7.7832 21.0293 8.17773C20.9238 8.56836 20.7656 8.91016 20.5547 9.20312C20.3477 9.49219 20.0918 9.7168 19.7871 9.87695C19.4824 10.0371 19.1309 10.1172 18.7324 10.1172C18.3379 10.1172 17.9922 10.0449 17.6953 9.90039C17.4023 9.75195 17.1543 9.54297 16.9512 9.27344C16.748 9.00391 16.584 8.6875 16.459 8.32422C16.3379 7.95703 16.252 7.55469 16.2012 7.11719V6.64258C16.252 6.17773 16.3379 5.75586 16.459 5.37695C16.584 4.99805 16.748 4.67188 16.9512 4.39844C17.1543 4.125 17.4023 3.91406 17.6953 3.76562C17.9883 3.61719 18.3301 3.54297 18.7207 3.54297C19.1191 3.54297 19.4727 3.62109 19.7812 3.77734C20.0898 3.92969 20.3496 4.14844 20.5605 4.43359C20.7715 4.71484 20.9297 5.05469 21.0352 5.45312C21.1406 5.84766 21.1934 6.28711 21.1934 6.77148ZM19.7812 6.89453V6.77148C19.7812 6.47852 19.7539 6.20703 19.6992 5.95703C19.6445 5.70312 19.5586 5.48047 19.4414 5.28906C19.3242 5.09766 19.1738 4.94922 18.9902 4.84375C18.8105 4.73438 18.5938 4.67969 18.3398 4.67969C18.0898 4.67969 17.875 4.72266 17.6953 4.80859C17.5156 4.89062 17.3652 5.00586 17.2441 5.1543C17.123 5.30273 17.0293 5.47656 16.9629 5.67578C16.8965 5.87109 16.8496 6.08398 16.8223 6.31445V7.45117C16.8691 7.73242 16.9492 7.99023 17.0625 8.22461C17.1758 8.45898 17.3359 8.64648 17.543 8.78711C17.7539 8.92383 18.0234 8.99219 18.3516 8.99219C18.6055 8.99219 18.8223 8.9375 19.002 8.82812C19.1816 8.71875 19.3281 8.56836 19.4414 8.37695C19.5586 8.18164 19.6445 7.95703 19.6992 7.70312C19.7539 7.44922 19.7812 7.17969 19.7812 6.89453ZM25.9688 8.72852V5.70508C25.9688 5.47852 25.9277 5.2832 25.8457 5.11914C25.7637 4.95508 25.6387 4.82812 25.4707 4.73828C25.3066 4.64844 25.0996 4.60352 24.8496 4.60352C24.6191 4.60352 24.4199 4.64258 24.252 4.7207C24.084 4.79883 23.9531 4.9043 23.8594 5.03711C23.7656 5.16992 23.7188 5.32031 23.7188 5.48828H22.3125C22.3125 5.23828 22.373 4.99609 22.4941 4.76172C22.6152 4.52734 22.791 4.31836 23.0215 4.13477C23.252 3.95117 23.5273 3.80664 23.8477 3.70117C24.168 3.5957 24.5273 3.54297 24.9258 3.54297C25.4023 3.54297 25.8242 3.62305 26.1914 3.7832C26.5625 3.94336 26.8535 4.18555 27.0645 4.50977C27.2793 4.83008 27.3867 5.23242 27.3867 5.7168V8.53516C27.3867 8.82422 27.4062 9.08398 27.4453 9.31445C27.4883 9.54102 27.5488 9.73828 27.627 9.90625V10H26.1797C26.1133 9.84766 26.0605 9.6543 26.0215 9.41992C25.9863 9.18164 25.9688 8.95117 25.9688 8.72852ZM26.1738 6.14453L26.1855 7.01758H25.1719C24.9102 7.01758 24.6797 7.04297 24.4805 7.09375C24.2812 7.14062 24.1152 7.21094 23.9824 7.30469C23.8496 7.39844 23.75 7.51172 23.6836 7.64453C23.6172 7.77734 23.584 7.92773 23.584 8.0957C23.584 8.26367 23.623 8.41797 23.7012 8.55859C23.7793 8.69531 23.8926 8.80273 24.041 8.88086C24.1934 8.95898 24.377 8.99805 24.5918 8.99805C24.8809 8.99805 25.1328 8.93945 25.3477 8.82227C25.5664 8.70117 25.7383 8.55469 25.8633 8.38281C25.9883 8.20703 26.0547 8.04102 26.0625 7.88477L26.5195 8.51172C26.4727 8.67188 26.3926 8.84375 26.2793 9.02734C26.166 9.21094 26.0176 9.38672 25.834 9.55469C25.6543 9.71875 25.4375 9.85352 25.1836 9.95898C24.9336 10.0645 24.6445 10.1172 24.3164 10.1172C23.9023 10.1172 23.5332 10.0352 23.209 9.87109C22.8848 9.70312 22.6309 9.47852 22.4473 9.19727C22.2637 8.91211 22.1719 8.58984 22.1719 8.23047C22.1719 7.89453 22.2344 7.59766 22.3594 7.33984C22.4883 7.07812 22.6758 6.85938 22.9219 6.68359C23.1719 6.50781 23.4766 6.375 23.8359 6.28516C24.1953 6.19141 24.6055 6.14453 25.0664 6.14453H26.1738ZM31.7109 3.66016V10H30.293V3.66016H31.7109ZM33.791 3.66016V4.77344H28.248V3.66016H33.791ZM39.0645 6.30859V7.42188H35.7832V6.30859H39.0645ZM36.1934 3.66016V10H34.7812V3.66016H36.1934ZM40.084 3.66016V10H38.6719V3.66016H40.084ZM45.1641 8.72852V5.70508C45.1641 5.47852 45.123 5.2832 45.041 5.11914C44.959 4.95508 44.834 4.82812 44.666 4.73828C44.502 4.64844 44.2949 4.60352 44.0449 4.60352C43.8145 4.60352 43.6152 4.64258 43.4473 4.7207C43.2793 4.79883 43.1484 4.9043 43.0547 5.03711C42.9609 5.16992 42.9141 5.32031 42.9141 5.48828H41.5078C41.5078 5.23828 41.5684 4.99609 41.6895 4.76172C41.8105 4.52734 41.9863 4.31836 42.2168 4.13477C42.4473 3.95117 42.7227 3.80664 43.043 3.70117C43.3633 3.5957 43.7227 3.54297 44.1211 3.54297C44.5977 3.54297 45.0195 3.62305 45.3867 3.7832C45.7578 3.94336 46.0488 4.18555 46.2598 4.50977C46.4746 4.83008 46.582 5.23242 46.582 5.7168V8.53516C46.582 8.82422 46.6016 9.08398 46.6406 9.31445C46.6836 9.54102 46.7441 9.73828 46.8223 9.90625V10H45.375C45.3086 9.84766 45.2559 9.6543 45.2168 9.41992C45.1816 9.18164 45.1641 8.95117 45.1641 8.72852ZM45.3691 6.14453L45.3809 7.01758H44.3672C44.1055 7.01758 43.875 7.04297 43.6758 7.09375C43.4766 7.14062 43.3105 7.21094 43.1777 7.30469C43.0449 7.39844 42.9453 7.51172 42.8789 7.64453C42.8125 7.77734 42.7793 7.92773 42.7793 8.0957C42.7793 8.26367 42.8184 8.41797 42.8965 8.55859C42.9746 8.69531 43.0879 8.80273 43.2363 8.88086C43.3887 8.95898 43.5723 8.99805 43.7871 8.99805C44.0762 8.99805 44.3281 8.93945 44.543 8.82227C44.7617 8.70117 44.9336 8.55469 45.0586 8.38281C45.1836 8.20703 45.25 8.04102 45.2578 7.88477L45.7148 8.51172C45.668 8.67188 45.5879 8.84375 45.4746 9.02734C45.3613 9.21094 45.2129 9.38672 45.0293 9.55469C44.8496 9.71875 44.6328 9.85352 44.3789 9.95898C44.1289 10.0645 43.8398 10.1172 43.5117 10.1172C43.0977 10.1172 42.7285 10.0352 42.4043 9.87109C42.0801 9.70312 41.8262 9.47852 41.6426 9.19727C41.459 8.91211 41.3672 8.58984 41.3672 8.23047C41.3672 7.89453 41.4297 7.59766 41.5547 7.33984C41.6836 7.07812 41.8711 6.85938 42.1172 6.68359C42.3672 6.50781 42.6719 6.375 43.0312 6.28516C43.3906 6.19141 43.8008 6.14453 44.2617 6.14453H45.3691ZM49.3945 6.90039H50.8594L49.0605 10H47.6016L49.3945 6.90039ZM50.4258 3.66016H53.1445V10H51.7383V4.77344H50.4258C50.1602 4.77344 49.9414 4.82031 49.7695 4.91406C49.5977 5.00391 49.4707 5.12305 49.3887 5.27148C49.3066 5.41602 49.2656 5.56445 49.2656 5.7168C49.2656 5.86914 49.3027 6.01562 49.377 6.15625C49.4551 6.29688 49.5742 6.41211 49.7344 6.50195C49.8984 6.5918 50.1035 6.63672 50.3496 6.63672H52.2129V7.66797H50.3496C49.959 7.66797 49.6094 7.61914 49.3008 7.52148C48.9922 7.41992 48.7305 7.28125 48.5156 7.10547C48.3008 6.92578 48.1367 6.7168 48.0234 6.47852C47.9102 6.23633 47.8535 5.97266 47.8535 5.6875C47.8535 5.39453 47.9121 5.125 48.0293 4.87891C48.1465 4.63281 48.3145 4.41797 48.5332 4.23438C48.7559 4.05078 49.0254 3.91016 49.3418 3.8125C49.6621 3.71094 50.0234 3.66016 50.4258 3.66016ZM60.293 8.99219C60.5234 8.99219 60.7305 8.94727 60.9141 8.85742C61.1016 8.76367 61.252 8.63477 61.3652 8.4707C61.4824 8.30664 61.5469 8.11719 61.5586 7.90234H62.8887C62.8809 8.3125 62.7598 8.68555 62.5254 9.02148C62.291 9.35742 61.9805 9.625 61.5938 9.82422C61.207 10.0195 60.7793 10.1172 60.3105 10.1172C59.8262 10.1172 59.4043 10.0352 59.0449 9.87109C58.6855 9.70312 58.3867 9.47266 58.1484 9.17969C57.9102 8.88672 57.7305 8.54883 57.6094 8.16602C57.4922 7.7832 57.4336 7.37305 57.4336 6.93555V6.73047C57.4336 6.29297 57.4922 5.88281 57.6094 5.5C57.7305 5.11328 57.9102 4.77344 58.1484 4.48047C58.3867 4.1875 58.6855 3.95898 59.0449 3.79492C59.4043 3.62695 59.8242 3.54297 60.3047 3.54297C60.8125 3.54297 61.2578 3.64453 61.6406 3.84766C62.0234 4.04688 62.3242 4.32617 62.543 4.68555C62.7656 5.04102 62.8809 5.45508 62.8887 5.92773H61.5586C61.5469 5.69336 61.4883 5.48242 61.3828 5.29492C61.2812 5.10352 61.1367 4.95117 60.9492 4.83789C60.7656 4.72461 60.5449 4.66797 60.2871 4.66797C60.002 4.66797 59.7656 4.72656 59.5781 4.84375C59.3906 4.95703 59.2441 5.11328 59.1387 5.3125C59.0332 5.50781 58.957 5.72852 58.9102 5.97461C58.8672 6.2168 58.8457 6.46875 58.8457 6.73047V6.93555C58.8457 7.19727 58.8672 7.45117 58.9102 7.69727C58.9531 7.94336 59.0273 8.16406 59.1328 8.35938C59.2422 8.55078 59.3906 8.70508 59.5781 8.82227C59.7656 8.93555 60.0039 8.99219 60.293 8.99219ZM67.0547 7.28711H65.0273L65.0156 6.29102H66.6797C66.9531 6.29102 67.1777 6.26367 67.3535 6.20898C67.5332 6.1543 67.666 6.07227 67.752 5.96289C67.8379 5.84961 67.8809 5.71289 67.8809 5.55273C67.8809 5.41992 67.8555 5.30469 67.8047 5.20703C67.7539 5.10547 67.6758 5.02344 67.5703 4.96094C67.4688 4.89453 67.3398 4.84766 67.1836 4.82031C67.0312 4.78906 66.8535 4.77344 66.6504 4.77344H65.4961V10H64.084V3.66016H66.6504C67.0566 3.66016 67.4219 3.69531 67.7461 3.76562C68.0742 3.83594 68.3535 3.94336 68.584 4.08789C68.8145 4.23242 68.9902 4.41602 69.1113 4.63867C69.2363 4.85742 69.2988 5.11523 69.2988 5.41211C69.2988 5.60742 69.2559 5.79102 69.1699 5.96289C69.0879 6.13477 68.9648 6.28711 68.8008 6.41992C68.6367 6.55273 68.4355 6.66211 68.1973 6.74805C67.959 6.83008 67.6855 6.88086 67.377 6.90039L67.0547 7.28711ZM67.0547 10H64.6172L65.1797 8.88672H67.0547C67.3047 8.88672 67.5117 8.85547 67.6758 8.79297C67.8398 8.73047 67.9609 8.64062 68.0391 8.52344C68.1211 8.40234 68.1621 8.25977 68.1621 8.0957C68.1621 7.92773 68.123 7.7832 68.0449 7.66211C67.9668 7.54102 67.8457 7.44922 67.6816 7.38672C67.5215 7.32031 67.3125 7.28711 67.0547 7.28711H65.4434L65.4551 6.29102H67.3711L67.7754 6.67773C68.1777 6.70508 68.5117 6.79102 68.7773 6.93555C69.043 7.08008 69.2422 7.26172 69.375 7.48047C69.5078 7.69922 69.5742 7.9375 69.5742 8.19531C69.5742 8.49219 69.5176 8.75391 69.4043 8.98047C69.2949 9.20703 69.1309 9.39648 68.9121 9.54883C68.6973 9.69727 68.4336 9.81055 68.1211 9.88867C67.8086 9.96289 67.4531 10 67.0547 10ZM72.1289 6.90039H73.5938L71.7949 10H70.3359L72.1289 6.90039ZM73.1602 3.66016H75.8789V10H74.4727V4.77344H73.1602C72.8945 4.77344 72.6758 4.82031 72.5039 4.91406C72.332 5.00391 72.2051 5.12305 72.123 5.27148C72.041 5.41602 72 5.56445 72 5.7168C72 5.86914 72.0371 6.01562 72.1113 6.15625C72.1895 6.29688 72.3086 6.41211 72.4688 6.50195C72.6328 6.5918 72.8379 6.63672 73.084 6.63672H74.9473V7.66797H73.084C72.6934 7.66797 72.3438 7.61914 72.0352 7.52148C71.7266 7.41992 71.4648 7.28125 71.25 7.10547C71.0352 6.92578 70.8711 6.7168 70.7578 6.47852C70.6445 6.23633 70.5879 5.97266 70.5879 5.6875C70.5879 5.39453 70.6465 5.125 70.7637 4.87891C70.8809 4.63281 71.0488 4.41797 71.2676 4.23438C71.4902 4.05078 71.7598 3.91016 72.0762 3.8125C72.3965 3.71094 72.7578 3.66016 73.1602 3.66016ZM80.0742 6.9707H78.8555V6.25586H79.8398C80.0898 6.25586 80.2891 6.22266 80.4375 6.15625C80.5898 6.08984 80.6973 5.99805 80.7598 5.88086C80.8262 5.75977 80.8594 5.61914 80.8594 5.45898C80.8594 5.31836 80.8262 5.18555 80.7598 5.06055C80.6973 4.93164 80.5898 4.82617 80.4375 4.74414C80.2852 4.66211 80.0781 4.62109 79.8164 4.62109C79.6016 4.62109 79.4082 4.65625 79.2363 4.72656C79.0684 4.79688 78.9355 4.89453 78.8379 5.01953C78.7402 5.14453 78.6914 5.28906 78.6914 5.45312H77.2793C77.2793 5.05859 77.3906 4.71875 77.6133 4.43359C77.8398 4.14844 78.1426 3.92969 78.5215 3.77734C78.9004 3.625 79.3164 3.54883 79.7695 3.54883C80.1562 3.54883 80.5039 3.58984 80.8125 3.67188C81.1211 3.75 81.3828 3.86719 81.5977 4.02344C81.8164 4.17578 81.9824 4.36719 82.0957 4.59766C82.2129 4.82422 82.2715 5.08789 82.2715 5.38867C82.2715 5.60352 82.2207 5.80664 82.1191 5.99805C82.0176 6.18945 81.8711 6.35938 81.6797 6.50781C81.4883 6.65234 81.2559 6.76562 80.9824 6.84766C80.7129 6.92969 80.4102 6.9707 80.0742 6.9707ZM78.8555 6.56055H80.0742C80.4492 6.56055 80.7812 6.59766 81.0703 6.67188C81.3594 6.74219 81.6016 6.84766 81.7969 6.98828C81.9922 7.12891 82.1387 7.30273 82.2363 7.50977C82.3379 7.71289 82.3887 7.94727 82.3887 8.21289C82.3887 8.50977 82.3242 8.77734 82.1953 9.01562C82.0703 9.25 81.8906 9.44922 81.6562 9.61328C81.4258 9.77734 81.1504 9.90234 80.8301 9.98828C80.5098 10.0742 80.1562 10.1172 79.7695 10.1172C79.3477 10.1172 78.9375 10.0469 78.5391 9.90625C78.1445 9.76562 77.8184 9.54883 77.5605 9.25586C77.3066 8.95898 77.1797 8.58203 77.1797 8.125H78.5918C78.5918 8.28516 78.6406 8.43555 78.7383 8.57617C78.8359 8.7168 78.9766 8.83203 79.1602 8.92188C79.3438 9.00781 79.5645 9.05078 79.8223 9.05078C80.0879 9.05078 80.3047 9.00977 80.4727 8.92773C80.6406 8.8418 80.7656 8.73047 80.8477 8.59375C80.9297 8.45312 80.9707 8.30469 80.9707 8.14844C80.9707 7.9375 80.9297 7.76758 80.8477 7.63867C80.7656 7.50977 80.6406 7.41602 80.4727 7.35742C80.3047 7.29492 80.0938 7.26367 79.8398 7.26367H78.8555V6.56055ZM84.6387 5.67578H86.5078C87.0547 5.67578 87.5195 5.76758 87.9023 5.95117C88.2852 6.13477 88.5762 6.39062 88.7754 6.71875C88.9785 7.04297 89.0801 7.41406 89.0801 7.83203C89.0801 8.14062 89.0234 8.42773 88.9102 8.69336C88.7969 8.95508 88.6289 9.18359 88.4062 9.37891C88.1875 9.57422 87.918 9.72656 87.5977 9.83594C87.2812 9.94531 86.918 10 86.5078 10H83.7012V3.66016H85.1191V8.88086H86.5078C86.7891 8.88086 87.0137 8.83203 87.1816 8.73438C87.3496 8.63672 87.4707 8.50977 87.5449 8.35352C87.623 8.19727 87.6621 8.03125 87.6621 7.85547C87.6621 7.67578 87.623 7.50586 87.5449 7.3457C87.4707 7.18555 87.3496 7.05469 87.1816 6.95312C87.0137 6.85156 86.7891 6.80078 86.5078 6.80078H84.6387V5.67578Z" fill="white"/>
</svg>
