<svg width="46" height="10" viewBox="0 0 46 10" fill="none" xmlns="http://www.w3.org/2000/svg">
<path d="M7.66992 4.5V4.96875C7.66992 5.61328 7.58594 6.19141 7.41797 6.70312C7.25 7.21484 7.00977 7.65039 6.69727 8.00977C6.38867 8.36914 6.01758 8.64453 5.58398 8.83594C5.15039 9.02344 4.66992 9.11719 4.14258 9.11719C3.61914 9.11719 3.14062 9.02344 2.70703 8.83594C2.27734 8.64453 1.9043 8.36914 1.58789 8.00977C1.27148 7.65039 1.02539 7.21484 0.849609 6.70312C0.677734 6.19141 0.591797 5.61328 0.591797 4.96875V4.5C0.591797 3.85547 0.677734 3.2793 0.849609 2.77148C1.02148 2.25977 1.26367 1.82422 1.57617 1.46484C1.89258 1.10156 2.26562 0.826172 2.69531 0.638672C3.12891 0.447266 3.60742 0.351562 4.13086 0.351562C4.6582 0.351562 5.13867 0.447266 5.57227 0.638672C6.00586 0.826172 6.37891 1.10156 6.69141 1.46484C7.00391 1.82422 7.24414 2.25977 7.41211 2.77148C7.58398 3.2793 7.66992 3.85547 7.66992 4.5ZM6.19922 4.96875V4.48828C6.19922 4.01172 6.15234 3.5918 6.05859 3.22852C5.96875 2.86133 5.83398 2.55469 5.6543 2.30859C5.47852 2.05859 5.26172 1.87109 5.00391 1.74609C4.74609 1.61719 4.45508 1.55273 4.13086 1.55273C3.80664 1.55273 3.51758 1.61719 3.26367 1.74609C3.00977 1.87109 2.79297 2.05859 2.61328 2.30859C2.4375 2.55469 2.30273 2.86133 2.20898 3.22852C2.11523 3.5918 2.06836 4.01172 2.06836 4.48828V4.96875C2.06836 5.44531 2.11523 5.86719 2.20898 6.23438C2.30273 6.60156 2.43945 6.91211 2.61914 7.16602C2.80273 7.41602 3.02148 7.60547 3.27539 7.73438C3.5293 7.85938 3.81836 7.92188 4.14258 7.92188C4.4707 7.92188 4.76172 7.85938 5.01562 7.73438C5.26953 7.60547 5.48438 7.41602 5.66016 7.16602C5.83594 6.91211 5.96875 6.60156 6.05859 6.23438C6.15234 5.86719 6.19922 5.44531 6.19922 4.96875ZM11.9414 2.66016V9H10.5234V2.66016H11.9414ZM14.0215 2.66016V3.77344H8.47852V2.66016H14.0215ZM17.5898 5.9707H16.3711V5.25586H17.3555C17.6055 5.25586 17.8047 5.22266 17.9531 5.15625C18.1055 5.08984 18.2129 4.99805 18.2754 4.88086C18.3418 4.75977 18.375 4.61914 18.375 4.45898C18.375 4.31836 18.3418 4.18555 18.2754 4.06055C18.2129 3.93164 18.1055 3.82617 17.9531 3.74414C17.8008 3.66211 17.5938 3.62109 17.332 3.62109C17.1172 3.62109 16.9238 3.65625 16.752 3.72656C16.584 3.79688 16.4512 3.89453 16.3535 4.01953C16.2559 4.14453 16.207 4.28906 16.207 4.45312H14.7949C14.7949 4.05859 14.9062 3.71875 15.1289 3.43359C15.3555 3.14844 15.6582 2.92969 16.0371 2.77734C16.416 2.625 16.832 2.54883 17.2852 2.54883C17.6719 2.54883 18.0195 2.58984 18.3281 2.67188C18.6367 2.75 18.8984 2.86719 19.1133 3.02344C19.332 3.17578 19.498 3.36719 19.6113 3.59766C19.7285 3.82422 19.7871 4.08789 19.7871 4.38867C19.7871 4.60352 19.7363 4.80664 19.6348 4.99805C19.5332 5.18945 19.3867 5.35938 19.1953 5.50781C19.0039 5.65234 18.7715 5.76562 18.498 5.84766C18.2285 5.92969 17.9258 5.9707 17.5898 5.9707ZM16.3711 5.56055H17.5898C17.9648 5.56055 18.2969 5.59766 18.5859 5.67188C18.875 5.74219 19.1172 5.84766 19.3125 5.98828C19.5078 6.12891 19.6543 6.30273 19.752 6.50977C19.8535 6.71289 19.9043 6.94727 19.9043 7.21289C19.9043 7.50977 19.8398 7.77734 19.7109 8.01562C19.5859 8.25 19.4062 8.44922 19.1719 8.61328C18.9414 8.77734 18.666 8.90234 18.3457 8.98828C18.0254 9.07422 17.6719 9.11719 17.2852 9.11719C16.8633 9.11719 16.4531 9.04688 16.0547 8.90625C15.6602 8.76562 15.334 8.54883 15.0762 8.25586C14.8223 7.95898 14.6953 7.58203 14.6953 7.125H16.1074C16.1074 7.28516 16.1562 7.43555 16.2539 7.57617C16.3516 7.7168 16.4922 7.83203 16.6758 7.92188C16.8594 8.00781 17.0801 8.05078 17.3379 8.05078C17.6035 8.05078 17.8203 8.00977 17.9883 7.92773C18.1562 7.8418 18.2812 7.73047 18.3633 7.59375C18.4453 7.45312 18.4863 7.30469 18.4863 7.14844C18.4863 6.9375 18.4453 6.76758 18.3633 6.63867C18.2812 6.50977 18.1562 6.41602 17.9883 6.35742C17.8203 6.29492 17.6094 6.26367 17.3555 6.26367H16.3711V5.56055ZM22.1543 4.67578H24.0234C24.5703 4.67578 25.0352 4.76758 25.418 4.95117C25.8008 5.13477 26.0918 5.39062 26.291 5.71875C26.4941 6.04297 26.5957 6.41406 26.5957 6.83203C26.5957 7.14062 26.5391 7.42773 26.4258 7.69336C26.3125 7.95508 26.1445 8.18359 25.9219 8.37891C25.7031 8.57422 25.4336 8.72656 25.1133 8.83594C24.7969 8.94531 24.4336 9 24.0234 9H21.2168V2.66016H22.6348V7.88086H24.0234C24.3047 7.88086 24.5293 7.83203 24.6973 7.73438C24.8652 7.63672 24.9863 7.50977 25.0605 7.35352C25.1387 7.19727 25.1777 7.03125 25.1777 6.85547C25.1777 6.67578 25.1387 6.50586 25.0605 6.3457C24.9863 6.18555 24.8652 6.05469 24.6973 5.95312C24.5293 5.85156 24.3047 5.80078 24.0234 5.80078H22.1543V4.67578ZM29.0918 2.66016V9H27.6797V2.66016H29.0918ZM33.8438 6.28711H31.8164L31.8047 5.29102H33.4688C33.7422 5.29102 33.9668 5.26367 34.1426 5.20898C34.3223 5.1543 34.4551 5.07227 34.541 4.96289C34.627 4.84961 34.6699 4.71289 34.6699 4.55273C34.6699 4.41992 34.6445 4.30469 34.5938 4.20703C34.543 4.10547 34.4648 4.02344 34.3594 3.96094C34.2578 3.89453 34.1289 3.84766 33.9727 3.82031C33.8203 3.78906 33.6426 3.77344 33.4395 3.77344H32.2852V9H30.873V2.66016H33.4395C33.8457 2.66016 34.2109 2.69531 34.5352 2.76562C34.8633 2.83594 35.1426 2.94336 35.373 3.08789C35.6035 3.23242 35.7793 3.41602 35.9004 3.63867C36.0254 3.85742 36.0879 4.11523 36.0879 4.41211C36.0879 4.60742 36.0449 4.79102 35.959 4.96289C35.877 5.13477 35.7539 5.28711 35.5898 5.41992C35.4258 5.55273 35.2246 5.66211 34.9863 5.74805C34.748 5.83008 34.4746 5.88086 34.166 5.90039L33.8438 6.28711ZM33.8438 9H31.4062L31.9688 7.88672H33.8438C34.0938 7.88672 34.3008 7.85547 34.4648 7.79297C34.6289 7.73047 34.75 7.64062 34.8281 7.52344C34.9102 7.40234 34.9512 7.25977 34.9512 7.0957C34.9512 6.92773 34.9121 6.7832 34.834 6.66211C34.7559 6.54102 34.6348 6.44922 34.4707 6.38672C34.3105 6.32031 34.1016 6.28711 33.8438 6.28711H32.2324L32.2441 5.29102H34.1602L34.5645 5.67773C34.9668 5.70508 35.3008 5.79102 35.5664 5.93555C35.832 6.08008 36.0312 6.26172 36.1641 6.48047C36.2969 6.69922 36.3633 6.9375 36.3633 7.19531C36.3633 7.49219 36.3066 7.75391 36.1934 7.98047C36.084 8.20703 35.9199 8.39648 35.7012 8.54883C35.4863 8.69727 35.2227 8.81055 34.9102 8.88867C34.5977 8.96289 34.2422 9 33.8438 9ZM38.6309 4.67578H40.5C41.0469 4.67578 41.5117 4.76758 41.8945 4.95117C42.2773 5.13477 42.5684 5.39062 42.7676 5.71875C42.9707 6.04297 43.0723 6.41406 43.0723 6.83203C43.0723 7.14062 43.0156 7.42773 42.9023 7.69336C42.7891 7.95508 42.6211 8.18359 42.3984 8.37891C42.1797 8.57422 41.9102 8.72656 41.5898 8.83594C41.2734 8.94531 40.9102 9 40.5 9H37.6934V2.66016H39.1113V7.88086H40.5C40.7812 7.88086 41.0059 7.83203 41.1738 7.73438C41.3418 7.63672 41.4629 7.50977 41.5371 7.35352C41.6152 7.19727 41.6543 7.03125 41.6543 6.85547C41.6543 6.67578 41.6152 6.50586 41.5371 6.3457C41.4629 6.18555 41.3418 6.05469 41.1738 5.95312C41.0059 5.85156 40.7812 5.80078 40.5 5.80078H38.6309V4.67578ZM45.5684 2.66016V9H44.1562V2.66016H45.5684Z" fill="white"/>
</svg>
