<svg width="63" height="12" viewBox="0 0 63 12" fill="none" xmlns="http://www.w3.org/2000/svg">
<path d="M7.61719 0.46875V9H6.15234V1.64062H2.36133V9H0.896484V0.46875H7.61719ZM8.97656 5.90039V5.76562C8.97656 5.30859 9.04297 4.88477 9.17578 4.49414C9.30859 4.09961 9.5 3.75781 9.75 3.46875C10.0039 3.17578 10.3125 2.94922 10.6758 2.78906C11.043 2.625 11.457 2.54297 11.918 2.54297C12.3828 2.54297 12.7969 2.625 13.1602 2.78906C13.5273 2.94922 13.8379 3.17578 14.0918 3.46875C14.3457 3.75781 14.5391 4.09961 14.6719 4.49414C14.8047 4.88477 14.8711 5.30859 14.8711 5.76562V5.90039C14.8711 6.35742 14.8047 6.78125 14.6719 7.17188C14.5391 7.5625 14.3457 7.9043 14.0918 8.19727C13.8379 8.48633 13.5293 8.71289 13.166 8.87695C12.8027 9.03711 12.3906 9.11719 11.9297 9.11719C11.4648 9.11719 11.0488 9.03711 10.6816 8.87695C10.3184 8.71289 10.0098 8.48633 9.75586 8.19727C9.50195 7.9043 9.30859 7.5625 9.17578 7.17188C9.04297 6.78125 8.97656 6.35742 8.97656 5.90039ZM10.3887 5.76562V5.90039C10.3887 6.18555 10.418 6.45508 10.4766 6.70898C10.5352 6.96289 10.627 7.18555 10.752 7.37695C10.877 7.56836 11.0371 7.71875 11.2324 7.82812C11.4277 7.9375 11.6602 7.99219 11.9297 7.99219C12.1914 7.99219 12.418 7.9375 12.6094 7.82812C12.8047 7.71875 12.9648 7.56836 13.0898 7.37695C13.2148 7.18555 13.3066 6.96289 13.3652 6.70898C13.4277 6.45508 13.459 6.18555 13.459 5.90039V5.76562C13.459 5.48438 13.4277 5.21875 13.3652 4.96875C13.3066 4.71484 13.2129 4.49023 13.084 4.29492C12.959 4.09961 12.7988 3.94727 12.6035 3.83789C12.4121 3.72461 12.1836 3.66797 11.918 3.66797C11.6523 3.66797 11.4219 3.72461 11.2266 3.83789C11.0352 3.94727 10.877 4.09961 10.752 4.29492C10.627 4.49023 10.5352 4.71484 10.4766 4.96875C10.418 5.21875 10.3887 5.48438 10.3887 5.76562ZM17.4727 3.87891V11.4375H16.0605V2.66016H17.3613L17.4727 3.87891ZM21.6035 5.77148V5.89453C21.6035 6.35547 21.5488 6.7832 21.4395 7.17773C21.334 7.56836 21.1758 7.91016 20.9648 8.20312C20.7578 8.49219 20.502 8.7168 20.1973 8.87695C19.8926 9.03711 19.541 9.11719 19.1426 9.11719C18.748 9.11719 18.4023 9.04492 18.1055 8.90039C17.8125 8.75195 17.5645 8.54297 17.3613 8.27344C17.1582 8.00391 16.9941 7.6875 16.8691 7.32422C16.748 6.95703 16.6621 6.55469 16.6113 6.11719V5.64258C16.6621 5.17773 16.748 4.75586 16.8691 4.37695C16.9941 3.99805 17.1582 3.67188 17.3613 3.39844C17.5645 3.125 17.8125 2.91406 18.1055 2.76562C18.3984 2.61719 18.7402 2.54297 19.1309 2.54297C19.5293 2.54297 19.8828 2.62109 20.1914 2.77734C20.5 2.92969 20.7598 3.14844 20.9707 3.43359C21.1816 3.71484 21.3398 4.05469 21.4453 4.45312C21.5508 4.84766 21.6035 5.28711 21.6035 5.77148ZM20.1914 5.89453V5.77148C20.1914 5.47852 20.1641 5.20703 20.1094 4.95703C20.0547 4.70312 19.9688 4.48047 19.8516 4.28906C19.7344 4.09766 19.584 3.94922 19.4004 3.84375C19.2207 3.73438 19.0039 3.67969 18.75 3.67969C18.5 3.67969 18.2852 3.72266 18.1055 3.80859C17.9258 3.89062 17.7754 4.00586 17.6543 4.1543C17.5332 4.30273 17.4395 4.47656 17.373 4.67578C17.3066 4.87109 17.2598 5.08398 17.2324 5.31445V6.45117C17.2793 6.73242 17.3594 6.99023 17.4727 7.22461C17.5859 7.45898 17.7461 7.64648 17.9531 7.78711C18.1641 7.92383 18.4336 7.99219 18.7617 7.99219C19.0156 7.99219 19.2324 7.9375 19.4121 7.82812C19.5918 7.71875 19.7383 7.56836 19.8516 7.37695C19.9688 7.18164 20.0547 6.95703 20.1094 6.70312C20.1641 6.44922 20.1914 6.17969 20.1914 5.89453ZM25.3594 2.66016V9H23.9414V2.66016H25.3594ZM27.4395 2.66016V3.77344H21.8965V2.66016H27.4395ZM35.4785 5.90625V6.0293C35.4785 6.47852 35.4277 6.89258 35.3262 7.27148C35.2285 7.64648 35.082 7.97266 34.8867 8.25C34.6914 8.52734 34.4492 8.74219 34.1602 8.89453C33.875 9.04688 33.543 9.12305 33.1641 9.12305C32.832 9.12305 32.543 9.06641 32.2969 8.95312C32.0508 8.83984 31.8438 8.68164 31.6758 8.47852C31.5078 8.27148 31.373 8.0293 31.2715 7.75195C31.1699 7.4707 31.0957 7.16211 31.0488 6.82617V4.99219C31.0957 4.63281 31.168 4.30469 31.2656 4.00781C31.3672 3.70703 31.502 3.44727 31.6699 3.22852C31.8418 3.00977 32.0488 2.8418 32.291 2.72461C32.5332 2.60352 32.8203 2.54297 33.1523 2.54297C33.457 2.54297 33.7324 2.59766 33.9785 2.70703C34.2246 2.8125 34.4414 2.96484 34.6289 3.16406C34.8164 3.35938 34.9727 3.5957 35.0977 3.87305C35.2227 4.14648 35.3164 4.45508 35.3789 4.79883C35.4453 5.14258 35.4785 5.51172 35.4785 5.90625ZM34.0664 6.0293V5.90625C34.0664 5.66016 34.0508 5.42578 34.0195 5.20312C33.9883 4.98047 33.9395 4.77734 33.873 4.59375C33.8105 4.40625 33.7285 4.24414 33.627 4.10742C33.5254 3.9668 33.4023 3.85938 33.2578 3.78516C33.1172 3.70703 32.9531 3.66797 32.7656 3.66797C32.5117 3.66797 32.3008 3.71094 32.1328 3.79688C31.9688 3.87891 31.8438 3.99609 31.7578 4.14844C31.6758 4.29688 31.623 4.46875 31.5996 4.66406V7.16016C31.627 7.32422 31.6836 7.46875 31.7695 7.59375C31.8594 7.71875 31.9863 7.81836 32.1504 7.89258C32.3145 7.96289 32.5234 7.99805 32.7773 7.99805C33.0117 7.99805 33.209 7.94922 33.3691 7.85156C33.5332 7.75 33.666 7.60938 33.7676 7.42969C33.873 7.25 33.9492 7.04102 33.9961 6.80273C34.043 6.56445 34.0664 6.30664 34.0664 6.0293ZM27.709 6.0293V5.90625C27.709 5.51172 27.7402 5.14258 27.8027 4.79883C27.8652 4.45508 27.959 4.14648 28.084 3.87305C28.2129 3.5957 28.3711 3.35938 28.5586 3.16406C28.7461 2.96484 28.9629 2.8125 29.209 2.70703C29.4551 2.59766 29.7305 2.54297 30.0352 2.54297C30.3633 2.54297 30.6465 2.60352 30.8848 2.72461C31.123 2.8418 31.3242 3.00977 31.4883 3.22852C31.6562 3.44727 31.7891 3.70703 31.8867 4.00781C31.9883 4.30469 32.0625 4.63281 32.1094 4.99219V6.75586C32.0664 7.09961 31.9941 7.41602 31.8926 7.70508C31.791 7.99414 31.6582 8.24414 31.4941 8.45508C31.3301 8.66602 31.127 8.83008 30.8848 8.94727C30.6426 9.06445 30.3555 9.12305 30.0234 9.12305C29.6484 9.12305 29.3164 9.04688 29.0273 8.89453C28.7383 8.74219 28.4961 8.52734 28.3008 8.25C28.1055 7.97266 27.957 7.64648 27.8555 7.27148C27.7578 6.89258 27.709 6.47852 27.709 6.0293ZM29.1211 5.90625V6.0293C29.1211 6.30664 29.1426 6.56445 29.1855 6.80273C29.2324 7.04102 29.3047 7.25 29.4023 7.42969C29.5 7.60547 29.6289 7.74414 29.7891 7.8457C29.9492 7.94727 30.1465 7.99805 30.3809 7.99805C30.6387 7.99805 30.8496 7.95898 31.0137 7.88086C31.1777 7.80273 31.3027 7.69531 31.3887 7.55859C31.4785 7.42188 31.5371 7.26562 31.5645 7.08984V4.66406C31.541 4.46875 31.4863 4.29688 31.4004 4.14844C31.3145 3.99609 31.1895 3.87891 31.0254 3.79688C30.8613 3.71094 30.6504 3.66797 30.3926 3.66797C30.1582 3.66797 29.959 3.72656 29.7949 3.84375C29.6348 3.96094 29.5039 4.12305 29.4023 4.33008C29.3047 4.5332 29.2324 4.77148 29.1855 5.04492C29.1426 5.31445 29.1211 5.60156 29.1211 5.90625ZM30.8555 11.4375V0H32.2734V11.4375H30.8555ZM36.4219 5.90039V5.76562C36.4219 5.30859 36.4883 4.88477 36.6211 4.49414C36.7539 4.09961 36.9453 3.75781 37.1953 3.46875C37.4492 3.17578 37.7578 2.94922 38.1211 2.78906C38.4883 2.625 38.9023 2.54297 39.3633 2.54297C39.8281 2.54297 40.2422 2.625 40.6055 2.78906C40.9727 2.94922 41.2832 3.17578 41.5371 3.46875C41.791 3.75781 41.9844 4.09961 42.1172 4.49414C42.25 4.88477 42.3164 5.30859 42.3164 5.76562V5.90039C42.3164 6.35742 42.25 6.78125 42.1172 7.17188C41.9844 7.5625 41.791 7.9043 41.5371 8.19727C41.2832 8.48633 40.9746 8.71289 40.6113 8.87695C40.248 9.03711 39.8359 9.11719 39.375 9.11719C38.9102 9.11719 38.4941 9.03711 38.127 8.87695C37.7637 8.71289 37.4551 8.48633 37.2012 8.19727C36.9473 7.9043 36.7539 7.5625 36.6211 7.17188C36.4883 6.78125 36.4219 6.35742 36.4219 5.90039ZM37.834 5.76562V5.90039C37.834 6.18555 37.8633 6.45508 37.9219 6.70898C37.9805 6.96289 38.0723 7.18555 38.1973 7.37695C38.3223 7.56836 38.4824 7.71875 38.6777 7.82812C38.873 7.9375 39.1055 7.99219 39.375 7.99219C39.6367 7.99219 39.8633 7.9375 40.0547 7.82812C40.25 7.71875 40.4102 7.56836 40.5352 7.37695C40.6602 7.18555 40.752 6.96289 40.8105 6.70898C40.873 6.45508 40.9043 6.18555 40.9043 5.90039V5.76562C40.9043 5.48438 40.873 5.21875 40.8105 4.96875C40.752 4.71484 40.6582 4.49023 40.5293 4.29492C40.4043 4.09961 40.2441 3.94727 40.0488 3.83789C39.8574 3.72461 39.6289 3.66797 39.3633 3.66797C39.0977 3.66797 38.8672 3.72461 38.6719 3.83789C38.4805 3.94727 38.3223 4.09961 38.1973 4.29492C38.0723 4.49023 37.9805 4.71484 37.9219 4.96875C37.8633 5.21875 37.834 5.48438 37.834 5.76562ZM47.666 2.66016V3.78516H44.5723V2.66016H47.666ZM48.7734 2.66016V9H47.3613V2.66016H48.7734ZM44.2266 2.66016H45.6211L45.4512 5.79492C45.4277 6.25977 45.3809 6.66992 45.3105 7.02539C45.2441 7.37695 45.1543 7.67969 45.041 7.93359C44.9277 8.18359 44.7891 8.38672 44.625 8.54297C44.4609 8.69922 44.2695 8.81445 44.0508 8.88867C43.832 8.96289 43.5859 9 43.3125 9H42.873L42.8672 7.83984L43.0898 7.82227C43.2344 7.81055 43.3594 7.77344 43.4648 7.71094C43.5703 7.64453 43.6602 7.55078 43.7344 7.42969C43.8125 7.30859 43.875 7.15234 43.9219 6.96094C43.9727 6.76953 44.0117 6.54297 44.0391 6.28125C44.0703 6.01953 44.0938 5.71484 44.1094 5.36719L44.2266 2.66016ZM51.7324 6.9375L54.2227 2.66016H55.6348V9H54.2227V4.7168L51.7324 9H50.3203V2.66016H51.7324V6.9375ZM56.8594 5.90039V5.76562C56.8594 5.30859 56.9258 4.88477 57.0586 4.49414C57.1914 4.09961 57.3828 3.75781 57.6328 3.46875C57.8867 3.17578 58.1953 2.94922 58.5586 2.78906C58.9258 2.625 59.3398 2.54297 59.8008 2.54297C60.2656 2.54297 60.6797 2.625 61.043 2.78906C61.4102 2.94922 61.7207 3.17578 61.9746 3.46875C62.2285 3.75781 62.4219 4.09961 62.5547 4.49414C62.6875 4.88477 62.7539 5.30859 62.7539 5.76562V5.90039C62.7539 6.35742 62.6875 6.78125 62.5547 7.17188C62.4219 7.5625 62.2285 7.9043 61.9746 8.19727C61.7207 8.48633 61.4121 8.71289 61.0488 8.87695C60.6855 9.03711 60.2734 9.11719 59.8125 9.11719C59.3477 9.11719 58.9316 9.03711 58.5645 8.87695C58.2012 8.71289 57.8926 8.48633 57.6387 8.19727C57.3848 7.9043 57.1914 7.5625 57.0586 7.17188C56.9258 6.78125 56.8594 6.35742 56.8594 5.90039ZM58.2715 5.76562V5.90039C58.2715 6.18555 58.3008 6.45508 58.3594 6.70898C58.418 6.96289 58.5098 7.18555 58.6348 7.37695C58.7598 7.56836 58.9199 7.71875 59.1152 7.82812C59.3105 7.9375 59.543 7.99219 59.8125 7.99219C60.0742 7.99219 60.3008 7.9375 60.4922 7.82812C60.6875 7.71875 60.8477 7.56836 60.9727 7.37695C61.0977 7.18555 61.1895 6.96289 61.248 6.70898C61.3105 6.45508 61.3418 6.18555 61.3418 5.90039V5.76562C61.3418 5.48438 61.3105 5.21875 61.248 4.96875C61.1895 4.71484 61.0957 4.49023 60.9668 4.29492C60.8418 4.09961 60.6816 3.94727 60.4863 3.83789C60.2949 3.72461 60.0664 3.66797 59.8008 3.66797C59.5352 3.66797 59.3047 3.72461 59.1094 3.83789C58.918 3.94727 58.7598 4.09961 58.6348 4.29492C58.5098 4.49023 58.418 4.71484 58.3594 4.96875C58.3008 5.21875 58.2715 5.48438 58.2715 5.76562Z" fill="white"/>
</svg>
